<?xml version="1.0" encoding="UTF-8"?>
<!DOCTYPE svg PUBLIC "-//W3C//DTD SVG 1.1//EN" "http://www.w3.org/Graphics/SVG/1.1/DTD/svg11.dtd">
<svg xmlns="http://www.w3.org/2000/svg" version="1.1" width="500px" height="500px" style="shape-rendering:geometricPrecision; text-rendering:geometricPrecision; image-rendering:optimizeQuality; fill-rule:evenodd; clip-rule:evenodd" xmlns:xlink="http://www.w3.org/1999/xlink">
<g><path style="opacity:1" fill="#fecad7" d="M 277.5,126.5 C 280.563,127.201 283.73,127.868 287,128.5C 287.667,143.833 287.667,159.167 287,174.5C 285.649,176.019 284.149,177.352 282.5,178.5C 286.294,181.379 290.628,183.212 295.5,184C 291.638,184.913 287.972,184.58 284.5,183C 285.167,182.667 285.833,182.333 286.5,182C 282.458,180.313 278.458,180.313 274.5,182C 275.357,182.689 276.023,183.522 276.5,184.5C 274.456,185.065 272.79,186.065 271.5,187.5C 267.792,188.963 264.126,190.63 260.5,192.5C 260.5,191.5 260.5,190.5 260.5,189.5C 263.927,188.567 267.26,187.4 270.5,186C 267.167,185.333 263.833,185.333 260.5,186C 259.781,188.556 258.114,189.723 255.5,189.5C 255.5,187.833 255.5,186.167 255.5,184.5C 258.732,183.136 261.899,181.469 265,179.5C 267.199,180.645 269.365,180.645 271.5,179.5C 270.829,178.054 269.662,177.388 268,177.5C 266.089,178.407 264.256,178.407 262.5,177.5C 259.853,179.707 257.187,179.54 254.5,177C 255.333,176.167 256.167,175.333 257,174.5C 258.113,175.711 259.28,175.711 260.5,174.5C 260.925,163.396 261.925,152.396 263.5,141.5C 262.638,139.913 261.971,138.246 261.5,136.5C 261.709,135.006 262.376,133.839 263.5,133C 260.833,132 260.833,131 263.5,130C 262.833,129.667 262.167,129.333 261.5,129C 266.773,127.712 272.106,126.878 277.5,126.5 Z"/></g>
<g><path style="opacity:1" fill="#fdc5dd" d="M 277.5,126.5 C 284.84,126.723 292.173,127.056 299.5,127.5C 312.852,129.384 324.519,134.718 334.5,143.5C 331.075,141.799 327.409,140.633 323.5,140C 322.354,139.355 321.354,138.522 320.5,137.5C 319.167,138.5 317.833,139.5 316.5,140.5C 316.624,141.107 316.957,141.44 317.5,141.5C 316.817,143.176 315.483,143.843 313.5,143.5C 313.5,154.167 313.5,164.833 313.5,175.5C 312.167,175.5 310.833,175.5 309.5,175.5C 309.715,177.774 310.382,179.941 311.5,182C 311.415,183.107 311.081,184.107 310.5,185C 312.918,185.915 314.918,187.415 316.5,189.5C 318.45,190.372 320.45,191.039 322.5,191.5C 321.685,192.837 320.518,193.837 319,194.5C 315.55,193.617 312.05,192.784 308.5,192C 306.325,188.955 303.325,187.789 299.5,188.5C 290.267,186.239 280.934,185.905 271.5,187.5C 272.79,186.065 274.456,185.065 276.5,184.5C 276.023,183.522 275.357,182.689 274.5,182C 278.458,180.313 282.458,180.313 286.5,182C 285.833,182.333 285.167,182.667 284.5,183C 287.972,184.58 291.638,184.913 295.5,184C 290.628,183.212 286.294,181.379 282.5,178.5C 284.149,177.352 285.649,176.019 287,174.5C 287.667,159.167 287.667,143.833 287,128.5C 283.73,127.868 280.563,127.201 277.5,126.5 Z"/></g>
<g><path style="opacity:1" fill="#fdd0d2" d="M 299.5,127.5 C 292.173,127.056 284.84,126.723 277.5,126.5C 272.106,126.878 266.773,127.712 261.5,129C 262.167,129.333 262.833,129.667 263.5,130C 260.833,131 260.833,132 263.5,133C 262.376,133.839 261.709,135.006 261.5,136.5C 261.971,138.246 262.638,139.913 263.5,141.5C 261.925,152.396 260.925,163.396 260.5,174.5C 259.28,175.711 258.113,175.711 257,174.5C 256.167,175.333 255.333,176.167 254.5,177C 257.187,179.54 259.853,179.707 262.5,177.5C 264.256,178.407 266.089,178.407 268,177.5C 269.662,177.388 270.829,178.054 271.5,179.5C 269.365,180.645 267.199,180.645 265,179.5C 261.899,181.469 258.732,183.136 255.5,184.5C 255.5,186.167 255.5,187.833 255.5,189.5C 258.114,189.723 259.781,188.556 260.5,186C 263.833,185.333 267.167,185.333 270.5,186C 267.26,187.4 263.927,188.567 260.5,189.5C 260.5,190.5 260.5,191.5 260.5,192.5C 256.879,195.783 253.213,199.116 249.5,202.5C 247.122,200.448 244.789,198.448 242.5,196.5C 242.158,195.662 241.492,195.328 240.5,195.5C 235.999,190.605 230.333,187.938 223.5,187.5C 222.432,186.566 221.099,186.232 219.5,186.5C 219.5,186.167 219.5,185.833 219.5,185.5C 222.431,183.751 225.265,181.751 228,179.5C 229.811,178.922 231.645,178.422 233.5,178C 230.768,177.587 228.101,176.92 225.5,176C 227.473,175.505 229.473,175.338 231.5,175.5C 232.087,169.697 231.42,164.197 229.5,159C 230.704,157.647 231.371,155.981 231.5,154C 231.333,152.5 231.167,151 231,149.5C 230.667,149.833 230.333,150.167 230,150.5C 229.333,147.833 229.333,145.167 230,142.5C 230.718,143.451 231.551,143.617 232.5,143C 233.833,142.333 233.833,141.667 232.5,141C 234.55,140.584 235.884,139.417 236.5,137.5C 245.178,131.506 254.845,127.672 265.5,126C 275.167,125.333 284.833,125.333 294.5,126C 296.382,126.198 298.048,126.698 299.5,127.5 Z"/></g>
<g><path style="opacity:1" fill="#fdbee3" d="M 334.5,143.5 C 341.312,149.32 346.645,156.32 350.5,164.5C 358.173,165.292 365.839,166.125 373.5,167C 376.457,167.279 379.123,168.113 381.5,169.5C 371.827,168.351 362.161,168.351 352.5,169.5C 350.311,169.406 348.311,168.739 346.5,167.5C 346.167,167.833 345.833,168.167 345.5,168.5C 346.193,169.518 346.859,170.518 347.5,171.5C 347.721,172.735 348.388,173.735 349.5,174.5C 348.125,207.773 346.791,241.106 345.5,274.5C 348.167,274.5 350.833,274.5 353.5,274.5C 356.059,274.198 358.393,274.532 360.5,275.5C 352.804,275.169 345.138,275.503 337.5,276.5C 337.863,277.183 338.196,277.85 338.5,278.5C 338.5,280.167 338.5,281.833 338.5,283.5C 334.177,283.227 330.01,282.227 326,280.5C 325.333,281.167 324.667,281.833 324,282.5C 322.941,282.37 322.108,281.87 321.5,281C 322.711,279.156 324.044,278.322 325.5,278.5C 324.271,277.719 322.938,277.219 321.5,277C 324.167,276.333 324.167,275.667 321.5,275C 329.681,270.192 329.014,268.026 319.5,268.5C 320.615,267.402 320.615,266.235 319.5,265C 322.49,262.531 323.823,259.365 323.5,255.5C 323.259,253.102 323.926,251.102 325.5,249.5C 326.458,249.047 327.292,248.381 328,247.5C 330.04,239.98 331.206,232.48 331.5,225C 330.023,223.188 328.69,221.355 327.5,219.5C 327.672,218.508 327.338,217.842 326.5,217.5C 326.598,215.447 325.931,213.78 324.5,212.5C 319.442,201.109 311.108,193.109 299.5,188.5C 303.325,187.789 306.325,188.955 308.5,192C 312.05,192.784 315.55,193.617 319,194.5C 320.518,193.837 321.685,192.837 322.5,191.5C 321.568,175.88 320.568,160.213 319.5,144.5C 320.552,144.649 321.552,144.483 322.5,144C 321.366,142.984 321.699,142.317 323.5,142C 321.527,141.505 319.527,141.338 317.5,141.5C 316.957,141.44 316.624,141.107 316.5,140.5C 317.833,139.5 319.167,138.5 320.5,137.5C 321.354,138.522 322.354,139.355 323.5,140C 327.409,140.633 331.075,141.799 334.5,143.5 Z"/></g>
<g><path style="opacity:1" fill="#fec1e1" d="M 317.5,141.5 C 319.527,141.338 321.527,141.505 323.5,142C 321.699,142.317 321.366,142.984 322.5,144C 321.552,144.483 320.552,144.649 319.5,144.5C 320.568,160.213 321.568,175.88 322.5,191.5C 320.45,191.039 318.45,190.372 316.5,189.5C 314.918,187.415 312.918,185.915 310.5,185C 311.081,184.107 311.415,183.107 311.5,182C 310.382,179.941 309.715,177.774 309.5,175.5C 310.833,175.5 312.167,175.5 313.5,175.5C 313.5,164.833 313.5,154.167 313.5,143.5C 315.483,143.843 316.817,143.176 317.5,141.5 Z"/></g>
<g><path style="opacity:1" fill="#fedec4" d="M 171.5,143.5 C 180.807,142.097 186.14,142.097 187.5,143.5C 187.667,159.17 187.5,174.837 187,190.5C 185.033,191.731 185.199,192.731 187.5,193.5C 188.386,192.675 188.719,191.675 188.5,190.5C 189.833,190.5 191.167,190.5 192.5,190.5C 189.23,193.287 186.23,196.287 183.5,199.5C 181.086,200.911 179.419,202.911 178.5,205.5C 174.227,210.719 171.56,216.719 170.5,223.5C 169.512,228.64 169.179,233.974 169.5,239.5C 168.344,232.011 168.178,224.345 169,216.5C 169.333,216.833 169.667,217.167 170,217.5C 169.401,195.527 169.401,173.527 170,151.5C 170.804,148.804 171.971,146.304 173.5,144C 172.906,143.536 172.239,143.369 171.5,143.5 Z"/></g>
<g><path style="opacity:1" fill="#fedbc8" d="M 207.5,142.5 C 204.956,143.481 202.29,143.647 199.5,143C 198.272,153.823 198.272,164.99 199.5,176.5C 203.833,177.682 207.833,179.515 211.5,182C 210.833,182.667 210.167,183.333 209.5,184C 213.025,184.179 216.359,184.679 219.5,185.5C 213.824,185.334 208.157,185.501 202.5,186C 200.509,186.374 198.842,187.207 197.5,188.5C 196.22,189.931 194.553,190.598 192.5,190.5C 191.167,190.5 189.833,190.5 188.5,190.5C 188.719,191.675 188.386,192.675 187.5,193.5C 185.199,192.731 185.033,191.731 187,190.5C 187.5,174.837 187.667,159.17 187.5,143.5C 186.14,142.097 180.807,142.097 171.5,143.5C 169.833,143.5 168.167,143.5 166.5,143.5C 179.954,139.881 193.621,139.547 207.5,142.5 Z"/></g>
<g><path style="opacity:1" fill="#fed7cc" d="M 236.5,137.5 C 235.884,139.417 234.55,140.584 232.5,141C 233.833,141.667 233.833,142.333 232.5,143C 231.551,143.617 230.718,143.451 230,142.5C 229.333,145.167 229.333,147.833 230,150.5C 230.333,150.167 230.667,149.833 231,149.5C 231.167,151 231.333,152.5 231.5,154C 231.371,155.981 230.704,157.647 229.5,159C 231.42,164.197 232.087,169.697 231.5,175.5C 229.473,175.338 227.473,175.505 225.5,176C 228.101,176.92 230.768,177.587 233.5,178C 231.645,178.422 229.811,178.922 228,179.5C 225.265,181.751 222.431,183.751 219.5,185.5C 216.359,184.679 213.025,184.179 209.5,184C 210.167,183.333 210.833,182.667 211.5,182C 207.833,179.515 203.833,177.682 199.5,176.5C 198.272,164.99 198.272,153.823 199.5,143C 202.29,143.647 204.956,143.481 207.5,142.5C 212.459,143.319 217.292,144.652 222,146.5C 226.46,142.868 231.293,139.868 236.5,137.5 Z"/></g>
<g><path style="opacity:1" fill="#fee4be" d="M 142.5,358.5 C 132.521,353.188 124.855,345.521 119.5,335.5C 121.861,336.435 124.028,337.768 126,339.5C 126.333,338.833 126.667,338.167 127,337.5C 131.243,336.936 135.41,337.603 139.5,339.5C 139.567,338.041 139.234,336.708 138.5,335.5C 137.791,334.596 136.791,334.263 135.5,334.5C 135.168,281.664 135.501,228.997 136.5,176.5C 139.206,175.361 140.373,173.361 140,170.5C 137.532,171.104 135.532,172.438 134,174.5C 131.877,174.034 130.377,172.867 129.5,171C 129.645,170.228 129.978,169.561 130.5,169C 135.986,168.516 137.819,165.683 136,160.5C 133.415,162.758 130.582,164.591 127.5,166C 124.934,169.658 122.268,173.158 119.5,176.5C 124.5,165.5 132.5,157.5 143.5,152.5C 146.493,153.135 149.493,153.301 152.5,153C 151.663,151.989 151.33,150.822 151.5,149.5C 156.015,150.982 160.681,151.648 165.5,151.5C 165.5,152.833 165.5,154.167 165.5,155.5C 162.447,155.319 159.447,155.152 156.5,155C 156.043,155.414 155.709,155.914 155.5,156.5C 157.045,157.452 158.712,157.785 160.5,157.5C 158.983,179.522 159.317,201.522 161.5,223.5C 160.5,223.5 159.5,223.5 158.5,223.5C 158.343,224.873 158.51,226.207 159,227.5C 162.901,230.989 163.234,234.989 160,239.5C 159.333,241.5 159.333,243.5 160,245.5C 161.474,239.293 162.974,239.127 164.5,245C 164.333,245.833 164.167,246.667 164,247.5C 163,246.167 162,246.167 161,247.5C 159.743,249.513 158.909,251.679 158.5,254C 159.316,287.148 159.816,320.314 160,353.5C 162.106,355.291 164.606,355.958 167.5,355.5C 167.936,358.364 167.103,360.697 165,362.5C 162.634,360.788 160.301,359.122 158,357.5C 154.876,359.284 155.376,360.284 159.5,360.5C 159.5,361.5 159.5,362.5 159.5,363.5C 154.189,360.843 148.522,359.176 142.5,358.5 Z"/></g>
<g><path style="opacity:1" fill="#fdb8e9" d="M 381.5,169.5 C 396.019,172.757 408.019,180.091 417.5,191.5C 416.391,191.443 415.391,191.11 414.5,190.5C 414.265,189.903 413.765,189.57 413,189.5C 411.7,190.707 410.2,191.374 408.5,191.5C 409.108,190.2 409.775,188.867 410.5,187.5C 410.392,186.558 410.059,185.725 409.5,185C 406.827,183.999 404.493,182.499 402.5,180.5C 397.934,180.522 394.601,178.522 392.5,174.5C 391.311,173.571 389.978,173.238 388.5,173.5C 388.082,172.778 387.416,172.278 386.5,172C 383.294,171.704 380.128,171.204 377,170.5C 376.127,170.735 375.293,171.069 374.5,171.5C 370.878,169.269 367.212,169.102 363.5,171C 367.247,171 370.913,172 374.5,174C 373.504,206.093 373.171,238.26 373.5,270.5C 374.5,270.5 375.5,270.5 376.5,270.5C 376.5,143.84 377.167,143.84 378.5,270.5C 383.755,271.464 383.588,272.798 378,274.5C 376.588,273.077 375.421,273.244 374.5,275C 371.167,275.333 367.833,275.667 364.5,276C 362.441,277.185 362.274,278.352 364,279.5C 365.982,279.01 367.649,278.01 369,276.5C 373.667,277.167 378.333,277.833 383,278.5C 382.793,281.73 382.793,285.063 383,288.5C 381.784,290.962 381.118,293.629 381,296.5C 380.333,295.167 379.667,295.167 379,296.5C 376.774,301.973 376.107,307.64 377,313.5C 380.633,316.756 380.133,318.756 375.5,319.5C 375.348,324.993 375.015,330.493 374.5,336C 376.937,337.375 379.603,337.875 382.5,337.5C 385.167,337.5 387.833,337.5 390.5,337.5C 381.692,338.871 372.692,339.871 363.5,340.5C 358.858,340.408 354.358,339.742 350,338.5C 348.105,339.689 346.105,340.689 344,341.5C 343.023,338.741 343.856,336.741 346.5,335.5C 347.167,329.5 347.833,323.5 348.5,317.5C 349.736,316.754 351.07,316.421 352.5,316.5C 352.157,318.483 352.824,319.817 354.5,320.5C 359.099,320.8 363.599,320.467 368,319.5C 373.108,307.742 377.608,295.742 381.5,283.5C 376.125,283.172 370.792,283.505 365.5,284.5C 365.081,285.672 364.415,286.672 363.5,287.5C 361.893,285.083 360.893,282.416 360.5,279.5C 360.5,278.167 360.5,276.833 360.5,275.5C 358.393,274.532 356.059,274.198 353.5,274.5C 353.489,272.983 352.823,271.816 351.5,271C 353.488,270.82 355.488,270.986 357.5,271.5C 357.333,239.832 357.5,208.165 358,176.5C 359.399,175.773 360.899,175.273 362.5,175C 357.708,172.101 352.708,170.935 347.5,171.5C 346.859,170.518 346.193,169.518 345.5,168.5C 345.833,168.167 346.167,167.833 346.5,167.5C 348.311,168.739 350.311,169.406 352.5,169.5C 362.161,168.351 371.827,168.351 381.5,169.5 Z"/></g>
<g><path style="opacity:1" fill="#feebb9" d="M 136.5,176.5 C 133.424,176.058 130.257,175.725 127,175.5C 125.923,177.116 125.423,178.949 125.5,181C 127.458,185.022 128.458,189.355 128.5,194C 127.224,232.239 127.224,270.573 128.5,309C 128.946,312.405 127.946,315.239 125.5,317.5C 126.751,318.631 127.751,319.964 128.5,321.5C 127.271,323.562 126.271,325.729 125.5,328C 126.992,330.009 128.326,332.176 129.5,334.5C 132.421,335.407 135.421,335.74 138.5,335.5C 139.234,336.708 139.567,338.041 139.5,339.5C 135.41,337.603 131.243,336.936 127,337.5C 126.667,338.167 126.333,338.833 126,339.5C 124.028,337.768 121.861,336.435 119.5,335.5C 115.293,327.373 112.793,318.707 112,309.5C 108.709,308.243 105.542,306.91 102.5,305.5C 104.5,305.5 106.5,305.5 108.5,305.5C 109.363,299.545 109.697,293.545 109.5,287.5C 108.167,287.5 106.833,287.5 105.5,287.5C 105.333,261.165 105.5,234.831 106,208.5C 110.451,206.681 110.284,205.014 105.5,203.5C 102.557,203.647 99.7236,204.313 97,205.5C 93.3418,208.682 89.1751,210.682 84.5,211.5C 91.5198,205.927 99.5198,202.26 108.5,200.5C 111.044,200.896 113.211,200.229 115,198.5C 115.545,190.877 117.045,183.544 119.5,176.5C 122.268,173.158 124.934,169.658 127.5,166C 130.582,164.591 133.415,162.758 136,160.5C 137.819,165.683 135.986,168.516 130.5,169C 129.978,169.561 129.645,170.228 129.5,171C 130.377,172.867 131.877,174.034 134,174.5C 135.532,172.438 137.532,171.104 140,170.5C 140.373,173.361 139.206,175.361 136.5,176.5 Z"/></g>
<g><path style="opacity:1" fill="#febae7" d="M 347.5,171.5 C 352.708,170.935 357.708,172.101 362.5,175C 360.899,175.273 359.399,175.773 358,176.5C 357.5,208.165 357.333,239.832 357.5,271.5C 355.488,270.986 353.488,270.82 351.5,271C 352.823,271.816 353.489,272.983 353.5,274.5C 350.833,274.5 348.167,274.5 345.5,274.5C 346.791,241.106 348.125,207.773 349.5,174.5C 348.388,173.735 347.721,172.735 347.5,171.5 Z"/></g>
<g><path style="opacity:1" fill="#feb2f0" d="M 388.5,173.5 C 389.978,173.238 391.311,173.571 392.5,174.5C 394.601,178.522 397.934,180.522 402.5,180.5C 404.493,182.499 406.827,183.999 409.5,185C 410.059,185.725 410.392,186.558 410.5,187.5C 409.775,188.867 409.108,190.2 408.5,191.5C 407.839,233.766 407.172,276.1 406.5,318.5C 405.328,318.919 404.328,319.585 403.5,320.5C 405.078,321.298 406.744,321.798 408.5,322C 409.647,324.178 411.313,325.678 413.5,326.5C 415.486,325.27 417.486,323.936 419.5,322.5C 420.386,321.675 420.719,320.675 420.5,319.5C 421.833,319.5 423.167,319.5 424.5,319.5C 418.562,326.475 411.229,331.475 402.5,334.5C 398.198,334.654 394.198,335.654 390.5,337.5C 387.833,337.5 385.167,337.5 382.5,337.5C 383.344,335.241 385.011,334.241 387.5,334.5C 387.5,286.833 387.5,239.167 387.5,191.5C 386.167,191.5 384.833,191.5 383.5,191.5C 383.09,185.379 383.59,179.379 385,173.5C 386.145,174.684 387.312,174.684 388.5,173.5 Z"/></g>
<g><path style="opacity:1" fill="#feb4ed" d="M 388.5,173.5 C 387.312,174.684 386.145,174.684 385,173.5C 383.59,179.379 383.09,185.379 383.5,191.5C 384.833,191.5 386.167,191.5 387.5,191.5C 387.5,239.167 387.5,286.833 387.5,334.5C 385.011,334.241 383.344,335.241 382.5,337.5C 379.603,337.875 376.937,337.375 374.5,336C 375.015,330.493 375.348,324.993 375.5,319.5C 380.133,318.756 380.633,316.756 377,313.5C 376.107,307.64 376.774,301.973 379,296.5C 379.667,295.167 380.333,295.167 381,296.5C 381.118,293.629 381.784,290.962 383,288.5C 382.793,285.063 382.793,281.73 383,278.5C 378.333,277.833 373.667,277.167 369,276.5C 367.649,278.01 365.982,279.01 364,279.5C 362.274,278.352 362.441,277.185 364.5,276C 367.833,275.667 371.167,275.333 374.5,275C 375.421,273.244 376.588,273.077 378,274.5C 383.588,272.798 383.755,271.464 378.5,270.5C 377.167,143.84 376.5,143.84 376.5,270.5C 375.5,270.5 374.5,270.5 373.5,270.5C 373.171,238.26 373.504,206.093 374.5,174C 370.913,172 367.247,171 363.5,171C 367.212,169.102 370.878,169.269 374.5,171.5C 375.293,171.069 376.127,170.735 377,170.5C 380.128,171.204 383.294,171.704 386.5,172C 387.416,172.278 388.082,172.778 388.5,173.5 Z"/></g>
<g><path style="opacity:1" fill="#fee8bc" d="M 136.5,176.5 C 135.501,228.997 135.168,281.664 135.5,334.5C 136.791,334.263 137.791,334.596 138.5,335.5C 135.421,335.74 132.421,335.407 129.5,334.5C 128.326,332.176 126.992,330.009 125.5,328C 126.271,325.729 127.271,323.562 128.5,321.5C 127.751,319.964 126.751,318.631 125.5,317.5C 127.946,315.239 128.946,312.405 128.5,309C 127.224,270.573 127.224,232.239 128.5,194C 128.458,189.355 127.458,185.022 125.5,181C 125.423,178.949 125.923,177.116 127,175.5C 130.257,175.725 133.424,176.058 136.5,176.5 Z"/></g>
<g><path style="opacity:1" fill="#f9efd1" d="M 119.5,176.5 C 117.045,183.544 115.545,190.877 115,198.5C 113.211,200.229 111.044,200.896 108.5,200.5C 109.878,199.766 111.378,199.099 113,198.5C 113.993,194.558 114.66,190.558 115,186.5C 115.844,182.771 117.344,179.437 119.5,176.5 Z"/></g>
<g><path style="opacity:1" fill="#fdca9c" d="M 219.5,185.5 C 219.5,185.833 219.5,186.167 219.5,186.5C 212.035,186.091 204.702,186.757 197.5,188.5C 198.842,187.207 200.509,186.374 202.5,186C 208.157,185.501 213.824,185.334 219.5,185.5 Z"/></g>
<g><path style="opacity:1" fill="#feaef3" d="M 414.5,190.5 C 413.761,190.369 413.094,190.536 412.5,191C 413.164,233.433 413.831,275.933 414.5,318.5C 415.386,317.675 415.719,316.675 415.5,315.5C 417.57,315.449 419.403,316.115 421,317.5C 422.406,316.586 423.906,315.92 425.5,315.5C 424.766,316.708 424.433,318.041 424.5,319.5C 423.167,319.5 421.833,319.5 420.5,319.5C 420.719,320.675 420.386,321.675 419.5,322.5C 417.486,323.936 415.486,325.27 413.5,326.5C 411.313,325.678 409.647,324.178 408.5,322C 406.744,321.798 405.078,321.298 403.5,320.5C 404.328,319.585 405.328,318.919 406.5,318.5C 407.172,276.1 407.839,233.766 408.5,191.5C 410.2,191.374 411.7,190.707 413,189.5C 413.765,189.57 414.265,189.903 414.5,190.5 Z"/></g>
<g><path style="opacity:1" fill="#d4383c" d="M 223.5,187.5 C 230.333,187.938 235.999,190.605 240.5,195.5C 240.443,196.609 240.11,197.609 239.5,198.5C 235.055,195.943 230.389,193.943 225.5,192.5C 224.609,191.89 223.609,191.557 222.5,191.5C 222.5,191.167 222.5,190.833 222.5,190.5C 222.047,189.542 221.381,188.708 220.5,188C 221.448,187.517 222.448,187.351 223.5,187.5 Z"/></g>
<g><path style="opacity:1" fill="#643587" d="M 299.5,188.5 C 311.108,193.109 319.442,201.109 324.5,212.5C 323.791,213.404 322.791,213.737 321.5,213.5C 318.287,207.614 313.954,202.614 308.5,198.5C 296.606,190.033 283.606,188.2 269.5,193C 265.931,194.942 262.598,197.108 259.5,199.5C 255.827,202.506 252.494,205.839 249.5,209.5C 247.493,207.467 245.493,205.467 243.5,203.5C 242.833,202.5 242.167,201.5 241.5,200.5C 241.232,198.901 241.566,197.568 242.5,196.5C 244.789,198.448 247.122,200.448 249.5,202.5C 253.213,199.116 256.879,195.783 260.5,192.5C 264.126,190.63 267.792,188.963 271.5,187.5C 280.934,185.905 290.267,186.239 299.5,188.5 Z"/></g>
<g><path style="opacity:1" fill="#feacf5" d="M 414.5,190.5 C 415.391,191.11 416.391,191.443 417.5,191.5C 417.372,193.655 417.872,195.655 419,197.5C 421.298,201.149 423.798,204.482 426.5,207.5C 426.5,207.833 426.5,208.167 426.5,208.5C 427.732,217.505 427.732,226.505 426.5,235.5C 421.248,239.593 419.582,244.926 421.5,251.5C 424.177,254.475 427.177,257.141 430.5,259.5C 430.124,263.753 431.79,266.753 435.5,268.5C 437.012,280.224 436.679,291.891 434.5,303.5C 433.5,303.5 432.5,303.5 431.5,303.5C 431.167,305.5 430.833,307.5 430.5,309.5C 429.5,309.5 428.5,309.5 427.5,309.5C 427.747,311.858 427.081,313.858 425.5,315.5C 423.906,315.92 422.406,316.586 421,317.5C 419.403,316.115 417.57,315.449 415.5,315.5C 415.719,316.675 415.386,317.675 414.5,318.5C 413.831,275.933 413.164,233.433 412.5,191C 413.094,190.536 413.761,190.369 414.5,190.5 Z"/></g>
<g><path style="opacity:1" fill="#e78d38" d="M 219.5,186.5 C 221.099,186.232 222.432,186.566 223.5,187.5C 222.448,187.351 221.448,187.517 220.5,188C 221.381,188.708 222.047,189.542 222.5,190.5C 216.409,190.211 210.409,190.545 204.5,191.5C 200.642,191.77 197.309,193.103 194.5,195.5C 191.5,197.5 188.5,199.5 185.5,201.5C 184.5,201.167 183.833,200.5 183.5,199.5C 186.23,196.287 189.23,193.287 192.5,190.5C 194.553,190.598 196.22,189.931 197.5,188.5C 204.702,186.757 212.035,186.091 219.5,186.5 Z"/></g>
<g><path style="opacity:1" fill="#fed6cc" d="M 222.5,191.5 C 223.609,191.557 224.609,191.89 225.5,192.5C 225.389,193.117 225.056,193.617 224.5,194C 226.167,194.333 227.833,194.667 229.5,195C 225.993,196.341 225.993,198.174 229.5,200.5C 228.311,201.429 226.978,201.762 225.5,201.5C 225.649,200.448 225.483,199.448 225,198.5C 223.992,198.982 222.825,199.148 221.5,199C 222.244,201.907 223.91,204.073 226.5,205.5C 226.504,211.054 226.337,216.721 226,222.5C 224.274,224.75 222.774,227.083 221.5,229.5C 217.538,227.205 214.205,224.205 211.5,220.5C 211.5,219.833 211.5,219.167 211.5,218.5C 211.579,217.07 211.246,215.736 210.5,214.5C 206.599,212.613 204.266,209.613 203.5,205.5C 204.978,205.762 206.311,205.429 207.5,204.5C 204.654,203.292 201.987,201.792 199.5,200C 202.332,199.674 204.999,200.174 207.5,201.5C 207.5,200.167 207.5,198.833 207.5,197.5C 206.325,197.719 205.325,197.386 204.5,196.5C 205.313,195.186 206.313,194.019 207.5,193C 212.532,192.664 217.532,192.164 222.5,191.5 Z"/></g>
<g><path style="opacity:1" fill="#f8bf89" d="M 204.5,191.5 C 201.482,193.4 198.149,194.733 194.5,195.5C 197.309,193.103 200.642,191.77 204.5,191.5 Z"/></g>
<g><path style="opacity:1" fill="#fdd8c5" d="M 222.5,190.5 C 222.5,190.833 222.5,191.167 222.5,191.5C 217.532,192.164 212.532,192.664 207.5,193C 206.313,194.019 205.313,195.186 204.5,196.5C 205.325,197.386 206.325,197.719 207.5,197.5C 207.5,198.833 207.5,200.167 207.5,201.5C 204.999,200.174 202.332,199.674 199.5,200C 201.987,201.792 204.654,203.292 207.5,204.5C 206.311,205.429 204.978,205.762 203.5,205.5C 204.266,209.613 206.599,212.613 210.5,214.5C 211.246,215.736 211.579,217.07 211.5,218.5C 209.342,216.007 206.676,214.34 203.5,213.5C 203.795,215.735 203.461,217.735 202.5,219.5C 201.817,217.824 200.483,217.157 198.5,217.5C 200.628,222.474 198.961,224.807 193.5,224.5C 193.099,216.622 192.099,216.622 190.5,224.5C 191.491,225.665 192.491,226.832 193.5,228C 191.898,229.822 190.231,231.655 188.5,233.5C 187.158,229.697 187.491,226.03 189.5,222.5C 188.388,220.61 187.554,218.61 187,216.5C 184.678,213.603 181.845,212.603 178.5,213.5C 179.399,210.605 180.733,207.938 182.5,205.5C 184.262,204.738 185.262,203.404 185.5,201.5C 188.5,199.5 191.5,197.5 194.5,195.5C 198.149,194.733 201.482,193.4 204.5,191.5C 210.409,190.545 216.409,190.211 222.5,190.5 Z"/></g>
<g><path style="opacity:1" fill="#923865" d="M 240.5,195.5 C 241.492,195.328 242.158,195.662 242.5,196.5C 241.566,197.568 241.232,198.901 241.5,200.5C 240.5,200.167 239.833,199.5 239.5,198.5C 240.11,197.609 240.443,196.609 240.5,195.5 Z"/></g>
<g><path style="opacity:1" fill="#f5c1f0" d="M 417.5,191.5 C 421.509,196.177 424.509,201.511 426.5,207.5C 423.798,204.482 421.298,201.149 419,197.5C 417.872,195.655 417.372,193.655 417.5,191.5 Z"/></g>
<g><path style="opacity:1" fill="#fdd1cf" d="M 225.5,192.5 C 230.389,193.943 235.055,195.943 239.5,198.5C 239.833,199.5 240.5,200.167 241.5,200.5C 242.167,201.5 242.833,202.5 243.5,203.5C 244.65,206.427 245.65,209.427 246.5,212.5C 245.313,212.554 243.98,212.887 242.5,213.5C 241.249,214.631 240.249,215.964 239.5,217.5C 239.667,218.167 239.833,218.833 240,219.5C 243.221,216.272 244.721,216.938 244.5,221.5C 243.833,222.5 243.167,223.5 242.5,224.5C 239.811,225.189 238.144,226.856 237.5,229.5C 237.167,229.5 236.833,229.5 236.5,229.5C 234.712,229.215 233.045,229.548 231.5,230.5C 232.804,232.016 232.304,232.682 230,232.5C 227.863,231.923 225.696,231.59 223.5,231.5C 222.833,230.833 222.167,230.167 221.5,229.5C 222.774,227.083 224.274,224.75 226,222.5C 226.337,216.721 226.504,211.054 226.5,205.5C 223.91,204.073 222.244,201.907 221.5,199C 222.825,199.148 223.992,198.982 225,198.5C 225.483,199.448 225.649,200.448 225.5,201.5C 226.978,201.762 228.311,201.429 229.5,200.5C 225.993,198.174 225.993,196.341 229.5,195C 227.833,194.667 226.167,194.333 224.5,194C 225.056,193.617 225.389,193.117 225.5,192.5 Z"/></g>
<g><path style="opacity:1" fill="#633380" d="M 287.5,197.5 C 294.657,200.774 298.657,206.441 299.5,214.5C 296.832,216.337 293.832,217.504 290.5,218C 289.517,220.984 287.517,222.817 284.5,223.5C 282.211,225.448 279.878,227.448 277.5,229.5C 281.722,222.112 287.889,217.112 296,214.5C 296.494,212.866 296.66,211.199 296.5,209.5C 294.774,209.815 293.107,209.981 291.5,210C 295.615,205.495 294.615,202.161 288.5,200C 282.707,198.708 278.04,200.374 274.5,205C 272.779,205.739 271.113,206.573 269.5,207.5C 269.112,209.308 269.112,210.975 269.5,212.5C 267.908,212.583 266.241,212.249 264.5,211.5C 261.408,212.308 258.408,213.308 255.5,214.5C 258.518,211.663 261.851,209.329 265.5,207.5C 270.268,204.58 274.934,201.414 279.5,198C 282.146,197.503 284.813,197.336 287.5,197.5 Z"/></g>
<g><path style="opacity:1" fill="#fef1b3" d="M 105.5,203.5 C 108.494,206.157 108.161,206.823 104.5,205.5C 102.729,206.035 102.396,206.869 103.5,208C 101.835,238.85 100.835,269.85 100.5,301C 100.833,301.333 101.167,301.667 101.5,302C 99.8659,302.494 98.1992,302.66 96.5,302.5C 96.6567,301.127 96.49,299.793 96,298.5C 93.7116,298.737 91.2116,298.737 88.5,298.5C 79.886,294.219 73.2194,287.886 68.5,279.5C 71.6814,282.803 75.0147,286.136 78.5,289.5C 78.138,287.127 78.8047,284.793 80.5,282.5C 78.8051,275.976 77.1384,269.476 75.5,263C 77.1353,254.22 77.6353,245.387 77,236.5C 75.5108,235.576 75.3441,234.576 76.5,233.5C 77.1667,234.167 77.8333,234.833 78.5,235.5C 78.8333,235 79.1667,234.5 79.5,234C 76.9279,231.193 76.9279,228.36 79.5,225.5C 79.3333,224.833 79.1667,224.167 79,223.5C 78,225.167 76.6667,226.5 75,227.5C 74.5065,229.134 74.3398,230.801 74.5,232.5C 72.8762,232.64 71.7096,231.973 71,230.5C 69.6439,231.38 68.1439,231.714 66.5,231.5C 70.0518,222.616 76.0518,215.949 84.5,211.5C 89.1751,210.682 93.3418,208.682 97,205.5C 99.7236,204.313 102.557,203.647 105.5,203.5 Z"/></g>
<g><path style="opacity:1" fill="#75467a" d="M 183.5,199.5 C 183.833,200.5 184.5,201.167 185.5,201.5C 185.262,203.404 184.262,204.738 182.5,205.5C 182.649,204.448 182.483,203.448 182,202.5C 180.961,203.71 179.794,204.71 178.5,205.5C 179.419,202.911 181.086,200.911 183.5,199.5 Z"/></g>
<g><path style="opacity:1" fill="#592a8f" d="M 277.5,229.5 C 277.5,230.167 277.5,230.833 277.5,231.5C 274.775,233.99 272.775,236.99 271.5,240.5C 268.41,241.665 267.076,243.998 267.5,247.5C 266.167,247.5 264.833,247.5 263.5,247.5C 263.027,246.094 262.027,245.427 260.5,245.5C 260.027,244.094 259.027,243.427 257.5,243.5C 256.833,240.833 255.167,239.167 252.5,238.5C 251.5,237.833 250.5,237.167 249.5,236.5C 248.92,234.251 247.587,232.585 245.5,231.5C 245.5,231.167 245.5,230.833 245.5,230.5C 245.5,229.833 245.5,229.167 245.5,228.5C 245.5,226.5 245.5,224.5 245.5,222.5C 246.822,222.33 247.989,222.663 249,223.5C 249.738,220.352 251.238,217.685 253.5,215.5C 253.842,214.662 254.508,214.328 255.5,214.5C 258.408,213.308 261.408,212.308 264.5,211.5C 266.241,212.249 267.908,212.583 269.5,212.5C 269.112,210.975 269.112,209.308 269.5,207.5C 271.113,206.573 272.779,205.739 274.5,205C 278.04,200.374 282.707,198.708 288.5,200C 294.615,202.161 295.615,205.495 291.5,210C 293.107,209.981 294.774,209.815 296.5,209.5C 296.66,211.199 296.494,212.866 296,214.5C 287.889,217.112 281.722,222.112 277.5,229.5 Z"/></g>
<g><path style="opacity:1" fill="#feeeb6" d="M 105.5,203.5 C 110.284,205.014 110.451,206.681 106,208.5C 105.5,234.831 105.333,261.165 105.5,287.5C 106.833,287.5 108.167,287.5 109.5,287.5C 109.697,293.545 109.363,299.545 108.5,305.5C 106.5,305.5 104.5,305.5 102.5,305.5C 97.2361,304.201 92.5694,301.868 88.5,298.5C 91.2116,298.737 93.7116,298.737 96,298.5C 96.49,299.793 96.6567,301.127 96.5,302.5C 98.1992,302.66 99.8659,302.494 101.5,302C 101.167,301.667 100.833,301.333 100.5,301C 100.835,269.85 101.835,238.85 103.5,208C 102.396,206.869 102.729,206.035 104.5,205.5C 108.161,206.823 108.494,206.157 105.5,203.5 Z"/></g>
<g><path style="opacity:1" fill="#f8cbd5" d="M 265.5,207.5 C 261.851,209.329 258.518,211.663 255.5,214.5C 254.508,214.328 253.842,214.662 253.5,215.5C 250.357,217.242 247.357,219.242 244.5,221.5C 244.721,216.938 243.221,216.272 240,219.5C 239.833,218.833 239.667,218.167 239.5,217.5C 240.249,215.964 241.249,214.631 242.5,213.5C 243.98,212.887 245.313,212.554 246.5,212.5C 245.65,209.427 244.65,206.427 243.5,203.5C 245.493,205.467 247.493,207.467 249.5,209.5C 252.494,205.839 255.827,202.506 259.5,199.5C 263.197,197.923 266.697,198.256 270,200.5C 270.483,201.448 270.649,202.448 270.5,203.5C 267.633,203.369 265.967,204.703 265.5,207.5 Z"/></g>
<g><path style="opacity:1" fill="#de7035" d="M 211.5,218.5 C 211.5,219.167 211.5,219.833 211.5,220.5C 209.866,219.793 208.532,218.627 207.5,217C 206.552,216.517 205.552,216.351 204.5,216.5C 204.923,218.781 204.256,220.448 202.5,221.5C 202.5,220.833 202.5,220.167 202.5,219.5C 203.461,217.735 203.795,215.735 203.5,213.5C 206.676,214.34 209.342,216.007 211.5,218.5 Z"/></g>
<g><path style="opacity:1" fill="#5e1e31" d="M 324.5,212.5 C 325.931,213.78 326.598,215.447 326.5,217.5C 325.488,218.872 324.488,220.205 323.5,221.5C 323.037,218.779 322.371,216.112 321.5,213.5C 322.791,213.737 323.791,213.404 324.5,212.5 Z"/></g>
<g><path style="opacity:1" fill="#663974" d="M 182.5,205.5 C 180.733,207.938 179.399,210.605 178.5,213.5C 177.167,215.833 175.833,218.167 174.5,220.5C 173.835,223.817 173.501,227.317 173.5,231C 173.512,234.902 174.179,238.402 175.5,241.5C 175.5,241.833 175.5,242.167 175.5,242.5C 175.879,245.567 174.879,246.567 172.5,245.5C 172.672,244.508 172.338,243.842 171.5,243.5C 171.5,242.833 171.5,242.167 171.5,241.5C 170.759,235.529 170.425,229.529 170.5,223.5C 171.56,216.719 174.227,210.719 178.5,205.5C 179.794,204.71 180.961,203.71 182,202.5C 182.483,203.448 182.649,204.448 182.5,205.5 Z"/></g>
<g><path style="opacity:1" fill="#673482" d="M 253.5,215.5 C 251.238,217.685 249.738,220.352 249,223.5C 247.989,222.663 246.822,222.33 245.5,222.5C 245.5,224.5 245.5,226.5 245.5,228.5C 244.833,228.167 244.167,227.833 243.5,227.5C 243.443,226.391 243.11,225.391 242.5,224.5C 243.167,223.5 243.833,222.5 244.5,221.5C 247.357,219.242 250.357,217.242 253.5,215.5 Z"/></g>
<g><path style="opacity:1" fill="#f4c4ee" d="M 426.5,208.5 C 430.34,217.513 430.34,226.513 426.5,235.5C 427.732,226.505 427.732,217.505 426.5,208.5 Z"/></g>
<g><path style="opacity:1" fill="#511825" d="M 299.5,214.5 C 303.955,218.567 308.955,221.901 314.5,224.5C 315.68,228.06 315.347,231.393 313.5,234.5C 312.657,236.173 311.324,237.34 309.5,238C 305.074,238.791 300.741,238.457 296.5,237C 295.15,235.282 293.983,233.448 293,231.5C 295.917,240.404 292.75,245.07 283.5,245.5C 281.102,245.741 279.102,245.074 277.5,243.5C 280.817,243.219 283.983,243.219 287,243.5C 288.353,242.315 289.52,240.981 290.5,239.5C 290.586,236.89 289.919,234.224 288.5,231.5C 286.502,229.666 284.168,228.666 281.5,228.5C 282.752,226.999 283.752,225.332 284.5,223.5C 287.517,222.817 289.517,220.984 290.5,218C 293.832,217.504 296.832,216.337 299.5,214.5 Z"/></g>
<g><path style="opacity:1" fill="#4f131c" d="M 313.5,234.5 C 308.349,236.086 303.349,235.752 298.5,233.5C 297.147,232.315 295.98,230.981 295,229.5C 294.667,229.833 294.333,230.167 294,230.5C 294.522,228.951 294.355,227.451 293.5,226C 295.003,224.079 295.669,221.912 295.5,219.5C 297.527,219.338 299.527,219.505 301.5,220C 300.154,222.638 300.987,225.138 304,227.5C 306.025,225.307 308.525,224.307 311.5,224.5C 311.06,228.179 311.727,231.512 313.5,234.5 Z"/></g>
<g><path style="opacity:1" fill="#55263c" d="M 174.5,220.5 C 174.24,227.557 174.573,234.557 175.5,241.5C 174.179,238.402 173.512,234.902 173.5,231C 173.501,227.317 173.835,223.817 174.5,220.5 Z"/></g>
<g><path style="opacity:1" fill="#d87f5b" d="M 242.5,224.5 C 243.11,225.391 243.443,226.391 243.5,227.5C 242.85,227.196 242.183,226.863 241.5,226.5C 240.148,227.524 238.815,228.524 237.5,229.5C 238.144,226.856 239.811,225.189 242.5,224.5 Z"/></g>
<g><path style="opacity:1" fill="#ab5a53" d="M 243.5,227.5 C 244.167,227.833 244.833,228.167 245.5,228.5C 245.5,229.167 245.5,229.833 245.5,230.5C 244.833,230.167 244.167,229.833 243.5,229.5C 243.5,228.833 243.5,228.167 243.5,227.5 Z"/></g>
<g><path style="opacity:1" fill="#4c1741" d="M 284.5,223.5 C 283.752,225.332 282.752,226.999 281.5,228.5C 280.167,229.5 278.833,230.5 277.5,231.5C 277.5,230.833 277.5,230.167 277.5,229.5C 279.878,227.448 282.211,225.448 284.5,223.5 Z"/></g>
<g><path style="opacity:1" fill="#deb9c9" d="M 170.5,223.5 C 170.425,229.529 170.759,235.529 171.5,241.5C 170.833,240.833 170.167,240.167 169.5,239.5C 169.179,233.974 169.512,228.64 170.5,223.5 Z"/></g>
<g><path style="opacity:1" fill="#4e131d" d="M 281.5,228.5 C 284.168,228.666 286.502,229.666 288.5,231.5C 289.919,234.224 290.586,236.89 290.5,239.5C 289.52,240.981 288.353,242.315 287,243.5C 283.983,243.219 280.817,243.219 277.5,243.5C 275.847,243.34 274.514,242.674 273.5,241.5C 274.438,237.934 275.771,234.6 277.5,231.5C 278.833,230.5 280.167,229.5 281.5,228.5 Z"/></g>
<g><path style="opacity:1" fill="#fdf5ae" d="M 68.5,279.5 C 66.412,277.664 65.0787,275.331 64.5,272.5C 61.7371,263.723 60.9038,254.723 62,245.5C 62.521,242.126 63.8543,239.126 66,236.5C 66.4935,234.866 66.6602,233.199 66.5,231.5C 68.1439,231.714 69.6439,231.38 71,230.5C 71.7096,231.973 72.8762,232.64 74.5,232.5C 74.3398,230.801 74.5065,229.134 75,227.5C 76.6667,226.5 78,225.167 79,223.5C 79.1667,224.167 79.3333,224.833 79.5,225.5C 76.9279,228.36 76.9279,231.193 79.5,234C 79.1667,234.5 78.8333,235 78.5,235.5C 77.8333,234.833 77.1667,234.167 76.5,233.5C 75.3441,234.576 75.5108,235.576 77,236.5C 77.6353,245.387 77.1353,254.22 75.5,263C 77.1384,269.476 78.8051,275.976 80.5,282.5C 78.8047,284.793 78.138,287.127 78.5,289.5C 75.0147,286.136 71.6814,282.803 68.5,279.5 Z"/></g>
<g><path style="opacity:1" fill="#e76b2d" d="M 211.5,220.5 C 214.205,224.205 217.538,227.205 221.5,229.5C 222.167,230.167 222.833,230.833 223.5,231.5C 225.751,232.411 227.751,233.744 229.5,235.5C 225.577,234.317 221.577,233.317 217.5,232.5C 217.833,231.833 218.167,231.167 218.5,230.5C 216.955,229.548 215.288,229.215 213.5,229.5C 212.833,226.5 212.167,223.5 211.5,220.5 Z"/></g>
<g><path style="opacity:1" fill="#dd7645" d="M 236.5,229.5 C 236.833,229.5 237.167,229.5 237.5,229.5C 236.31,234.043 237.977,237.377 242.5,239.5C 242.5,240.167 242.5,240.833 242.5,241.5C 239.348,238.849 236.348,236.015 233.5,233C 234.544,231.826 235.544,230.659 236.5,229.5 Z"/></g>
<g><path style="opacity:1" fill="#ec681b" d="M 243.5,227.5 C 243.5,228.167 243.5,228.833 243.5,229.5C 243.54,232.881 243.207,236.214 242.5,239.5C 237.977,237.377 236.31,234.043 237.5,229.5C 238.815,228.524 240.148,227.524 241.5,226.5C 242.183,226.863 242.85,227.196 243.5,227.5 Z"/></g>
<g><path style="opacity:1" fill="#feb3cf" d="M 327.5,219.5 C 328.69,221.355 330.023,223.188 331.5,225C 331.206,232.48 330.04,239.98 328,247.5C 327.292,248.381 326.458,249.047 325.5,249.5C 328.441,239.656 329.108,229.656 327.5,219.5 Z"/></g>
<g><path style="opacity:1" fill="#ab5f56" d="M 245.5,231.5 C 247.587,232.585 248.92,234.251 249.5,236.5C 247.413,235.415 246.08,233.749 245.5,231.5 Z"/></g>
<g><path style="opacity:1" fill="#de713a" d="M 229.5,235.5 C 233.858,238.161 237.525,241.495 240.5,245.5C 240.167,245.5 239.833,245.5 239.5,245.5C 238.193,244.847 236.86,244.18 235.5,243.5C 233.813,240.496 231.813,237.829 229.5,235.5 Z"/></g>
<g><path style="opacity:1" fill="#b96752" d="M 249.5,236.5 C 250.5,237.167 251.5,237.833 252.5,238.5C 253.5,239.833 254.5,241.167 255.5,242.5C 252.5,241.5 250.5,239.5 249.5,236.5 Z"/></g>
<g><path style="opacity:1" fill="#fbc3db" d="M 308.5,198.5 C 308.414,199.496 308.748,200.329 309.5,201C 307.598,201.199 306.098,202.033 305,203.5C 304.275,202.941 303.442,202.608 302.5,202.5C 301.068,202.733 300.568,203.4 301,204.5C 303.911,204.782 306.744,204.782 309.5,204.5C 311.225,205.015 312.892,205.682 314.5,206.5C 313.91,207.799 312.91,208.632 311.5,209C 313.965,209.632 315.631,211.132 316.5,213.5C 315.738,213.911 314.738,214.077 313.5,214C 314.524,215.367 314.024,216.2 312,216.5C 308.824,214.842 307.324,215.842 307.5,219.5C 310.969,219.299 313.802,220.299 316,222.5C 316.33,225.324 317.164,227.991 318.5,230.5C 317.86,232.519 317.86,234.353 318.5,236C 317.376,236.249 316.376,236.749 315.5,237.5C 314.357,240.264 313.023,242.931 311.5,245.5C 313.44,248.196 312.773,249.529 309.5,249.5C 309.494,252.518 308.494,255.184 306.5,257.5C 308.574,259.828 309.574,259.161 309.5,255.5C 310.978,255.238 312.311,255.571 313.5,256.5C 312.5,257.833 311.5,259.167 310.5,260.5C 311.34,261.735 312.34,262.735 313.5,263.5C 313.167,264.167 312.833,264.833 312.5,265.5C 311.768,266.808 310.934,268.142 310,269.5C 308.512,267.84 306.679,266.84 304.5,266.5C 301.478,265.074 298.312,264.074 295,263.5C 292.24,263.646 289.74,264.313 287.5,265.5C 287.167,265.5 286.833,265.5 286.5,265.5C 285.883,265.389 285.383,265.056 285,264.5C 284.29,265.973 283.124,266.64 281.5,266.5C 281.5,268.167 281.5,269.833 281.5,271.5C 279.897,271.688 278.563,271.188 277.5,270C 279.137,266.715 279.804,263.215 279.5,259.5C 281.722,259.822 283.556,259.155 285,257.5C 286.337,258.765 287.837,259.265 289.5,259C 286.488,256.492 283.821,253.658 281.5,250.5C 282.685,249.147 284.019,247.98 285.5,247C 284.584,246.722 283.918,246.222 283.5,245.5C 292.75,245.07 295.917,240.404 293,231.5C 293.983,233.448 295.15,235.282 296.5,237C 300.741,238.457 305.074,238.791 309.5,238C 311.324,237.34 312.657,236.173 313.5,234.5C 315.347,231.393 315.68,228.06 314.5,224.5C 308.955,221.901 303.955,218.567 299.5,214.5C 298.657,206.441 294.657,200.774 287.5,197.5C 284.813,197.336 282.146,197.503 279.5,198C 274.934,201.414 270.268,204.58 265.5,207.5C 265.967,204.703 267.633,203.369 270.5,203.5C 270.649,202.448 270.483,201.448 270,200.5C 266.697,198.256 263.197,197.923 259.5,199.5C 262.598,197.108 265.931,194.942 269.5,193C 283.606,188.2 296.606,190.033 308.5,198.5 Z"/></g>
<g><path style="opacity:1" fill="#fdc9d8" d="M 287.5,197.5 C 283.649,196.191 279.649,196.191 275.5,197.5C 275.113,198.72 274.28,199.387 273,199.5C 271.495,198.327 269.995,197.161 268.5,196C 270.167,195 271.833,194 273.5,193C 280.534,191.741 287.2,192.574 293.5,195.5C 295.782,194.777 298.116,194.443 300.5,194.5C 300.5,195.5 300.5,196.5 300.5,197.5C 296.35,198.319 292.016,198.319 287.5,197.5 Z"/></g>
<g><path style="opacity:1" fill="#712f65" d="M 252.5,238.5 C 255.167,239.167 256.833,240.833 257.5,243.5C 256.508,243.672 255.842,243.338 255.5,242.5C 254.5,241.167 253.5,239.833 252.5,238.5 Z"/></g>
<g><path style="opacity:1" fill="#501b45" d="M 277.5,231.5 C 275.771,234.6 274.438,237.934 273.5,241.5C 272.833,241.167 272.167,240.833 271.5,240.5C 272.775,236.99 274.775,233.99 277.5,231.5 Z"/></g>
<g><path style="opacity:1" fill="#fdbedd" d="M 308.5,198.5 C 313.954,202.614 318.287,207.614 321.5,213.5C 322.371,216.112 323.037,218.779 323.5,221.5C 325.688,236.913 322.354,250.913 313.5,263.5C 312.34,262.735 311.34,261.735 310.5,260.5C 311.5,259.167 312.5,257.833 313.5,256.5C 312.311,255.571 310.978,255.238 309.5,255.5C 309.574,259.161 308.574,259.828 306.5,257.5C 308.494,255.184 309.494,252.518 309.5,249.5C 312.773,249.529 313.44,248.196 311.5,245.5C 313.023,242.931 314.357,240.264 315.5,237.5C 316.376,236.749 317.376,236.249 318.5,236C 317.86,234.353 317.86,232.519 318.5,230.5C 317.164,227.991 316.33,225.324 316,222.5C 313.802,220.299 310.969,219.299 307.5,219.5C 307.324,215.842 308.824,214.842 312,216.5C 314.024,216.2 314.524,215.367 313.5,214C 314.738,214.077 315.738,213.911 316.5,213.5C 315.631,211.132 313.965,209.632 311.5,209C 312.91,208.632 313.91,207.799 314.5,206.5C 312.892,205.682 311.225,205.015 309.5,204.5C 306.744,204.782 303.911,204.782 301,204.5C 300.568,203.4 301.068,202.733 302.5,202.5C 303.442,202.608 304.275,202.941 305,203.5C 306.098,202.033 307.598,201.199 309.5,201C 308.748,200.329 308.414,199.496 308.5,198.5 Z"/></g>
<g><path style="opacity:1" fill="#dd753a" d="M 192.5,234.5 C 192.335,237.85 192.502,241.183 193,244.5C 194.518,245.163 195.685,246.163 196.5,247.5C 193.762,248.035 191.928,247.035 191,244.5C 190.333,241.833 190.333,239.167 191,236.5C 191.278,235.584 191.778,234.918 192.5,234.5 Z"/></g>
<g><path style="opacity:1" fill="#ef861e" d="M 243.5,229.5 C 244.167,229.833 244.833,230.167 245.5,230.5C 245.5,230.833 245.5,231.167 245.5,231.5C 246.08,233.749 247.413,235.415 249.5,236.5C 250.5,239.5 252.5,241.5 255.5,242.5C 255.842,243.338 256.508,243.672 257.5,243.5C 257.833,244.5 258.5,245.167 259.5,245.5C 260.042,248.919 262.042,250.586 265.5,250.5C 265.827,255.214 265.493,259.88 264.5,264.5C 263.583,263.873 262.583,263.539 261.5,263.5C 255.885,255.551 249.552,248.218 242.5,241.5C 242.5,240.833 242.5,240.167 242.5,239.5C 243.207,236.214 243.54,232.881 243.5,229.5 Z"/></g>
<g><path style="opacity:1" fill="#fcc9d4" d="M 271.5,240.5 C 272.167,240.833 272.833,241.167 273.5,241.5C 274.514,242.674 275.847,243.34 277.5,243.5C 279.102,245.074 281.102,245.741 283.5,245.5C 283.918,246.222 284.584,246.722 285.5,247C 284.019,247.98 282.685,249.147 281.5,250.5C 283.821,253.658 286.488,256.492 289.5,259C 287.837,259.265 286.337,258.765 285,257.5C 283.556,259.155 281.722,259.822 279.5,259.5C 279.804,263.215 279.137,266.715 277.5,270C 278.563,271.188 279.897,271.688 281.5,271.5C 281.5,269.833 281.5,268.167 281.5,266.5C 283.124,266.64 284.29,265.973 285,264.5C 285.383,265.056 285.883,265.389 286.5,265.5C 284.129,267.997 283.129,270.997 283.5,274.5C 283.217,275.289 282.717,275.956 282,276.5C 281,275.5 280,274.5 279,273.5C 278.29,274.973 277.124,275.64 275.5,275.5C 275.433,278.766 277.099,280.266 280.5,280C 281.126,280.75 281.626,281.584 282,282.5C 286.715,273.228 288.215,273.562 286.5,283.5C 289.779,284.031 291.113,286.031 290.5,289.5C 293.95,288.756 295.616,290.09 295.5,293.5C 292.192,294.026 290.026,292.693 289,289.5C 287.812,290.563 287.312,291.897 287.5,293.5C 281.552,293.626 281.219,294.626 286.5,296.5C 287.647,296.182 288.481,295.516 289,294.5C 289.75,295.126 290.584,295.626 291.5,296C 288.77,297.232 288.937,298.065 292,298.5C 294.086,297.582 296.253,296.915 298.5,296.5C 298.5,296.833 298.5,297.167 298.5,297.5C 291.759,301.695 284.759,302.361 277.5,299.5C 273.76,295.767 270.427,291.767 267.5,287.5C 267.5,287.167 267.5,286.833 267.5,286.5C 266.851,280.882 264.851,275.882 261.5,271.5C 261.5,270.833 261.5,270.167 261.5,269.5C 261.5,268.167 262.167,267.5 263.5,267.5C 264.496,267.586 265.329,267.252 266,266.5C 267.217,260.899 267.717,255.232 267.5,249.5C 267.5,248.833 267.5,248.167 267.5,247.5C 267.076,243.998 268.41,241.665 271.5,240.5 Z"/></g>
<g><path style="opacity:1" fill="#833f59" d="M 257.5,243.5 C 259.027,243.427 260.027,244.094 260.5,245.5C 260.167,245.5 259.833,245.5 259.5,245.5C 258.5,245.167 257.833,244.5 257.5,243.5 Z"/></g>
<g><path style="opacity:1" fill="#f6bdf0" d="M 426.5,235.5 C 425.474,239.411 424.14,243.244 422.5,247C 425.401,251.057 428.068,255.224 430.5,259.5C 427.177,257.141 424.177,254.475 421.5,251.5C 419.582,244.926 421.248,239.593 426.5,235.5 Z"/></g>
<g><path style="opacity:1" fill="#fee1c3" d="M 166.5,143.5 C 168.167,143.5 169.833,143.5 171.5,143.5C 172.239,143.369 172.906,143.536 173.5,144C 171.971,146.304 170.804,148.804 170,151.5C 169.401,173.527 169.401,195.527 170,217.5C 169.667,217.167 169.333,216.833 169,216.5C 168.178,224.345 168.344,232.011 169.5,239.5C 170.167,240.167 170.833,240.833 171.5,241.5C 171.5,242.167 171.5,242.833 171.5,243.5C 171.66,245.199 171.494,246.866 171,248.5C 169.865,248.727 168.698,249.06 167.5,249.5C 168.364,251.962 169.697,254.129 171.5,256C 169.51,292.612 168.843,329.446 169.5,366.5C 176.349,368.225 183.349,368.891 190.5,368.5C 190.833,368.5 191.167,368.5 191.5,368.5C 191.5,368.833 191.5,369.167 191.5,369.5C 175.404,370.714 160.071,367.881 145.5,361C 144.058,360.623 143.058,359.79 142.5,358.5C 148.522,359.176 154.189,360.843 159.5,363.5C 159.5,362.5 159.5,361.5 159.5,360.5C 155.376,360.284 154.876,359.284 158,357.5C 160.301,359.122 162.634,360.788 165,362.5C 167.103,360.697 167.936,358.364 167.5,355.5C 164.606,355.958 162.106,355.291 160,353.5C 159.816,320.314 159.316,287.148 158.5,254C 158.909,251.679 159.743,249.513 161,247.5C 162,246.167 163,246.167 164,247.5C 164.167,246.667 164.333,245.833 164.5,245C 162.974,239.127 161.474,239.293 160,245.5C 159.333,243.5 159.333,241.5 160,239.5C 163.234,234.989 162.901,230.989 159,227.5C 158.51,226.207 158.343,224.873 158.5,223.5C 159.5,223.5 160.5,223.5 161.5,223.5C 159.317,201.522 158.983,179.522 160.5,157.5C 158.712,157.785 157.045,157.452 155.5,156.5C 155.709,155.914 156.043,155.414 156.5,155C 159.447,155.152 162.447,155.319 165.5,155.5C 165.5,154.167 165.5,152.833 165.5,151.5C 160.681,151.648 156.015,150.982 151.5,149.5C 151.33,150.822 151.663,151.989 152.5,153C 149.493,153.301 146.493,153.135 143.5,152.5C 150.375,147.758 158.042,144.758 166.5,143.5 Z"/></g>
<g><path style="opacity:1" fill="#733e5e" d="M 175.5,242.5 C 176.404,243.209 176.737,244.209 176.5,245.5C 176.5,247.5 175.5,248.5 173.5,248.5C 172.89,247.609 172.557,246.609 172.5,245.5C 174.879,246.567 175.879,245.567 175.5,242.5 Z"/></g>
<g><path style="opacity:1" fill="#8f454f" d="M 260.5,245.5 C 262.027,245.427 263.027,246.094 263.5,247.5C 261.973,247.573 260.973,246.906 260.5,245.5 Z"/></g>
<g><path style="opacity:1" fill="#fbf6c9" d="M 66.5,231.5 C 66.6602,233.199 66.4935,234.866 66,236.5C 63.8543,239.126 62.521,242.126 62,245.5C 60.9038,254.723 61.7371,263.723 64.5,272.5C 61.1432,266.722 59.8099,260.388 60.5,253.5C 59.8989,245.324 61.8989,237.991 66.5,231.5 Z"/></g>
<g><path style="opacity:1" fill="#8e4c5c" d="M 263.5,247.5 C 264.833,247.5 266.167,247.5 267.5,247.5C 267.5,248.167 267.5,248.833 267.5,249.5C 265.847,249.34 264.514,248.674 263.5,247.5 Z"/></g>
<g><path style="opacity:1" fill="#ed651a" d="M 211.5,220.5 C 212.167,223.5 212.833,226.5 213.5,229.5C 215.288,229.215 216.955,229.548 218.5,230.5C 218.167,231.167 217.833,231.833 217.5,232.5C 221.577,233.317 225.577,234.317 229.5,235.5C 231.813,237.829 233.813,240.496 235.5,243.5C 236.86,244.18 238.193,244.847 239.5,245.5C 235.038,253.963 228.371,259.963 219.5,263.5C 218.833,262.833 218.167,262.167 217.5,261.5C 217.706,258.505 217.04,255.838 215.5,253.5C 215.497,250.325 214.497,247.492 212.5,245C 207.391,246.513 202.058,247.346 196.5,247.5C 195.685,246.163 194.518,245.163 193,244.5C 192.502,241.183 192.335,237.85 192.5,234.5C 195.074,229.591 198.408,225.258 202.5,221.5C 204.256,220.448 204.923,218.781 204.5,216.5C 205.552,216.351 206.552,216.517 207.5,217C 208.532,218.627 209.866,219.793 211.5,220.5 Z"/></g>
<g><path style="opacity:1" fill="#cf905a" d="M 176.5,245.5 C 177.537,246.93 178.204,248.597 178.5,250.5C 176.402,249.086 175.402,249.752 175.5,252.5C 174.655,251.329 173.989,249.995 173.5,248.5C 175.5,248.5 176.5,247.5 176.5,245.5 Z"/></g>
<g><path style="opacity:1" fill="#e68e3d" d="M 259.5,245.5 C 259.833,245.5 260.167,245.5 260.5,245.5C 260.973,246.906 261.973,247.573 263.5,247.5C 264.514,248.674 265.847,249.34 267.5,249.5C 267.717,255.232 267.217,260.899 266,266.5C 265.329,267.252 264.496,267.586 263.5,267.5C 263.267,265.938 262.6,264.605 261.5,263.5C 262.583,263.539 263.583,263.873 264.5,264.5C 265.493,259.88 265.827,255.214 265.5,250.5C 262.042,250.586 260.042,248.919 259.5,245.5 Z"/></g>
<g><path style="opacity:1" fill="#d43340" d="M 326.5,217.5 C 327.338,217.842 327.672,218.508 327.5,219.5C 329.108,229.656 328.441,239.656 325.5,249.5C 323.926,251.102 323.259,253.102 323.5,255.5C 320.145,259.824 317.145,264.491 314.5,269.5C 312.889,268.68 312.222,267.346 312.5,265.5C 312.833,264.833 313.167,264.167 313.5,263.5C 322.354,250.913 325.688,236.913 323.5,221.5C 324.488,220.205 325.488,218.872 326.5,217.5 Z"/></g>
<g><path style="opacity:1" fill="#e59149" d="M 240.5,245.5 C 244.234,248.231 247.234,251.564 249.5,255.5C 245.766,252.769 242.766,249.436 240.5,245.5 Z"/></g>
<g><path style="opacity:1" fill="#fedec3" d="M 171.5,243.5 C 172.338,243.842 172.672,244.508 172.5,245.5C 172.557,246.609 172.89,247.609 173.5,248.5C 173.989,249.995 174.655,251.329 175.5,252.5C 175.263,253.791 175.596,254.791 176.5,255.5C 178.168,258.838 179.834,262.172 181.5,265.5C 184.194,269.851 186.86,274.184 189.5,278.5C 188.637,277.537 187.97,277.537 187.5,278.5C 188.739,280.311 189.406,282.311 189.5,284.5C 187.98,288.623 187.147,292.956 187,297.5C 182.553,299.876 182.553,300.543 187,299.5C 187.814,301.902 187.647,304.235 186.5,306.5C 185.833,305.833 185.167,305.167 184.5,304.5C 183.534,306.396 183.201,308.396 183.5,310.5C 186.155,310.659 188.488,311.659 190.5,313.5C 193.086,314.48 195.753,314.813 198.5,314.5C 194.728,315.052 191.395,316.719 188.5,319.5C 187.167,335.167 187.167,350.833 188.5,366.5C 189.522,366.855 190.189,367.522 190.5,368.5C 183.349,368.891 176.349,368.225 169.5,366.5C 168.843,329.446 169.51,292.612 171.5,256C 169.697,254.129 168.364,251.962 167.5,249.5C 168.698,249.06 169.865,248.727 171,248.5C 171.494,246.866 171.66,245.199 171.5,243.5 Z"/></g>
<g><path style="opacity:1" fill="#fdc8b1" d="M 236.5,229.5 C 235.544,230.659 234.544,231.826 233.5,233C 236.348,236.015 239.348,238.849 242.5,241.5C 249.552,248.218 255.885,255.551 261.5,263.5C 262.6,264.605 263.267,265.938 263.5,267.5C 262.167,267.5 261.5,268.167 261.5,269.5C 260.833,268.833 260.167,268.167 259.5,267.5C 256.641,263.122 253.308,259.122 249.5,255.5C 247.234,251.564 244.234,248.231 240.5,245.5C 237.525,241.495 233.858,238.161 229.5,235.5C 227.751,233.744 225.751,232.411 223.5,231.5C 225.696,231.59 227.863,231.923 230,232.5C 232.304,232.682 232.804,232.016 231.5,230.5C 233.045,229.548 234.712,229.215 236.5,229.5 Z"/></g>
<g><path style="opacity:1" fill="#fcd9c2" d="M 202.5,219.5 C 202.5,220.167 202.5,220.833 202.5,221.5C 198.408,225.258 195.074,229.591 192.5,234.5C 191.778,234.918 191.278,235.584 191,236.5C 190.333,239.167 190.333,241.833 191,244.5C 191.928,247.035 193.762,248.035 196.5,247.5C 202.058,247.346 207.391,246.513 212.5,245C 214.497,247.492 215.497,250.325 215.5,253.5C 214.325,252.026 213.325,250.36 212.5,248.5C 207.449,247.095 202.783,247.928 198.5,251C 200.952,251.29 203.285,251.956 205.5,253C 201.789,253.175 198.122,253.675 194.5,254.5C 195.328,255.415 196.328,256.081 197.5,256.5C 198.331,264.145 198.831,271.812 199,279.5C 201.041,280.423 203.208,280.756 205.5,280.5C 205.338,278.473 205.505,276.473 206,274.5C 208.161,277.872 207.661,280.872 204.5,283.5C 202.775,281.908 201.775,282.242 201.5,284.5C 201.167,284.5 200.833,284.5 200.5,284.5C 197.213,280.041 193.713,275.708 190,271.5C 187.335,266.682 184.502,262.016 181.5,257.5C 181.241,254.728 180.241,252.395 178.5,250.5C 178.204,248.597 177.537,246.93 176.5,245.5C 176.737,244.209 176.404,243.209 175.5,242.5C 175.5,242.167 175.5,241.833 175.5,241.5C 174.573,234.557 174.24,227.557 174.5,220.5C 175.833,218.167 177.167,215.833 178.5,213.5C 181.845,212.603 184.678,213.603 187,216.5C 187.554,218.61 188.388,220.61 189.5,222.5C 187.491,226.03 187.158,229.697 188.5,233.5C 190.231,231.655 191.898,229.822 193.5,228C 192.491,226.832 191.491,225.665 190.5,224.5C 192.099,216.622 193.099,216.622 193.5,224.5C 198.961,224.807 200.628,222.474 198.5,217.5C 200.483,217.157 201.817,217.824 202.5,219.5 Z"/></g>
<g><path style="opacity:1" fill="#eca566" d="M 178.5,250.5 C 180.241,252.395 181.241,254.728 181.5,257.5C 179.759,255.605 178.759,253.272 178.5,250.5 Z"/></g>
<g><path style="opacity:1" fill="#ef851a" d="M 239.5,245.5 C 239.833,245.5 240.167,245.5 240.5,245.5C 242.766,249.436 245.766,252.769 249.5,255.5C 249.961,257.55 250.628,259.55 251.5,261.5C 254.462,263.132 257.129,265.132 259.5,267.5C 260.167,268.167 260.833,268.833 261.5,269.5C 261.5,270.167 261.5,270.833 261.5,271.5C 261.904,274.679 262.904,277.679 264.5,280.5C 264.457,281.416 264.124,282.083 263.5,282.5C 258.908,278.63 253.575,276.297 247.5,275.5C 245.708,275.634 244.042,275.301 242.5,274.5C 235.687,273.509 228.687,273.175 221.5,273.5C 220.626,270.211 219.959,266.877 219.5,263.5C 228.371,259.963 235.038,253.963 239.5,245.5 Z"/></g>
<g><path style="opacity:1" fill="#e7903c" d="M 249.5,255.5 C 253.308,259.122 256.641,263.122 259.5,267.5C 257.129,265.132 254.462,263.132 251.5,261.5C 250.628,259.55 249.961,257.55 249.5,255.5 Z"/></g>
<g><path style="opacity:1" fill="#c25129" d="M 176.5,255.5 C 179.22,257.917 181.22,260.917 182.5,264.5C 182.376,265.107 182.043,265.44 181.5,265.5C 179.834,262.172 178.168,258.838 176.5,255.5 Z"/></g>
<g><path style="opacity:1" fill="#d63c45" d="M 304.5,266.5 C 304.833,267.167 305.167,267.833 305.5,268.5C 302.654,268.97 300.321,268.137 298.5,266C 294.848,265.501 291.182,265.335 287.5,265.5C 289.74,264.313 292.24,263.646 295,263.5C 298.312,264.074 301.478,265.074 304.5,266.5 Z"/></g>
<g><path style="opacity:1" fill="#f5bded" d="M 430.5,259.5 C 432.924,262.008 434.59,265.008 435.5,268.5C 431.79,266.753 430.124,263.753 430.5,259.5 Z"/></g>
<g><path style="opacity:1" fill="#e3202d" d="M 287.5,265.5 C 291.182,265.335 294.848,265.501 298.5,266C 300.321,268.137 302.654,268.97 305.5,268.5C 306.957,270.628 307.957,272.962 308.5,275.5C 305.5,274.167 302.5,272.833 299.5,271.5C 298.076,269.285 295.909,268.285 293,268.5C 290.855,268.396 289.021,269.063 287.5,270.5C 287.193,269.113 287.193,267.446 287.5,265.5 Z"/></g>
<g><path style="opacity:1" fill="#fbcaad" d="M 217.5,261.5 C 218.167,262.167 218.833,262.833 219.5,263.5C 219.959,266.877 220.626,270.211 221.5,273.5C 221.5,274.167 221.5,274.833 221.5,275.5C 220.5,275.5 219.5,275.5 218.5,275.5C 218.167,275.5 217.833,275.5 217.5,275.5C 217.5,272.833 217.5,270.167 217.5,267.5C 214.6,267.408 212.933,268.741 212.5,271.5C 212.357,269.738 212.691,268.071 213.5,266.5C 214.651,265.269 215.817,265.269 217,266.5C 217.494,264.866 217.66,263.199 217.5,261.5 Z"/></g>
<g><path style="opacity:1" fill="#d24451" d="M 286.5,265.5 C 286.833,265.5 287.167,265.5 287.5,265.5C 287.193,267.446 287.193,269.113 287.5,270.5C 289.021,269.063 290.855,268.396 293,268.5C 295.909,268.285 298.076,269.285 299.5,271.5C 293.576,269.572 288.243,270.572 283.5,274.5C 283.129,270.997 284.129,267.997 286.5,265.5 Z"/></g>
<g><path style="opacity:1" fill="#e98c36" d="M 178.5,250.5 C 178.759,253.272 179.759,255.605 181.5,257.5C 184.502,262.016 187.335,266.682 190,271.5C 193.713,275.708 197.213,280.041 200.5,284.5C 200.167,284.5 199.833,284.5 199.5,284.5C 197.784,282.975 195.784,281.975 193.5,281.5C 192.167,280.5 190.833,279.5 189.5,278.5C 186.86,274.184 184.194,269.851 181.5,265.5C 182.043,265.44 182.376,265.107 182.5,264.5C 181.22,260.917 179.22,257.917 176.5,255.5C 175.596,254.791 175.263,253.791 175.5,252.5C 175.402,249.752 176.402,249.086 178.5,250.5 Z"/></g>
<g><path style="opacity:1" fill="#e89344" d="M 217.5,275.5 C 215.883,276.038 214.216,276.371 212.5,276.5C 212.5,274.833 212.5,273.167 212.5,271.5C 212.933,268.741 214.6,267.408 217.5,267.5C 217.5,270.167 217.5,272.833 217.5,275.5 Z"/></g>
<g><path style="opacity:1" fill="#8b485d" d="M 221.5,273.5 C 228.687,273.175 235.687,273.509 242.5,274.5C 235.416,273.874 228.75,274.541 222.5,276.5C 221.833,276.5 221.5,276.167 221.5,275.5C 221.5,274.833 221.5,274.167 221.5,273.5 Z"/></g>
<g><path style="opacity:1" fill="#ce3744" d="M 305.5,268.5 C 309.103,270.435 311.103,273.435 311.5,277.5C 308.833,277.5 306.167,277.5 303.5,277.5C 302.585,275.246 301.252,273.246 299.5,271.5C 302.5,272.833 305.5,274.167 308.5,275.5C 307.957,272.962 306.957,270.628 305.5,268.5 Z"/></g>
<g><path style="opacity:1" fill="#be6b50" d="M 247.5,275.5 C 253.575,276.297 258.908,278.63 263.5,282.5C 264.5,284.167 265.833,285.5 267.5,286.5C 267.5,286.833 267.5,287.167 267.5,287.5C 263.769,284.437 259.769,281.77 255.5,279.5C 252.746,278.359 250.079,277.025 247.5,275.5 Z"/></g>
<g><path style="opacity:1" fill="#7e4773" d="M 217.5,275.5 C 217.833,275.5 218.167,275.5 218.5,275.5C 219.11,276.391 219.443,277.391 219.5,278.5C 219.167,278.5 218.833,278.5 218.5,278.5C 213.875,277.37 211.208,279.37 210.5,284.5C 210.167,284.5 209.833,284.5 209.5,284.5C 210.129,281.603 211.129,278.936 212.5,276.5C 214.216,276.371 215.883,276.038 217.5,275.5 Z"/></g>
<g><path style="opacity:1" fill="#e5904b" d="M 261.5,271.5 C 264.851,275.882 266.851,280.882 267.5,286.5C 265.833,285.5 264.5,284.167 263.5,282.5C 264.124,282.083 264.457,281.416 264.5,280.5C 262.904,277.679 261.904,274.679 261.5,271.5 Z"/></g>
<g><path style="opacity:1" fill="#fdc5da" d="M 299.5,271.5 C 301.252,273.246 302.585,275.246 303.5,277.5C 304.62,284.644 302.953,290.977 298.5,296.5C 296.253,296.915 294.086,297.582 292,298.5C 288.937,298.065 288.77,297.232 291.5,296C 290.584,295.626 289.75,295.126 289,294.5C 288.481,295.516 287.647,296.182 286.5,296.5C 281.219,294.626 281.552,293.626 287.5,293.5C 287.312,291.897 287.812,290.563 289,289.5C 290.026,292.693 292.192,294.026 295.5,293.5C 295.616,290.09 293.95,288.756 290.5,289.5C 291.113,286.031 289.779,284.031 286.5,283.5C 288.215,273.562 286.715,273.228 282,282.5C 281.626,281.584 281.126,280.75 280.5,280C 277.099,280.266 275.433,278.766 275.5,275.5C 277.124,275.64 278.29,274.973 279,273.5C 280,274.5 281,275.5 282,276.5C 282.717,275.956 283.217,275.289 283.5,274.5C 288.243,270.572 293.576,269.572 299.5,271.5 Z"/></g>
<g><path style="opacity:1" fill="#551b24" d="M 303.5,277.5 C 306.167,277.5 308.833,277.5 311.5,277.5C 313.373,285.236 312.373,292.569 308.5,299.5C 308.167,299.5 307.833,299.5 307.5,299.5C 306.833,299.5 306.167,299.5 305.5,299.5C 303.401,298.388 301.067,297.721 298.5,297.5C 298.5,297.167 298.5,296.833 298.5,296.5C 302.953,290.977 304.62,284.644 303.5,277.5 Z"/></g>
<g><path style="opacity:1" fill="#f5b7ee" d="M 435.5,268.5 C 437.964,273.419 438.964,278.752 438.5,284.5C 439.19,291.388 437.857,297.722 434.5,303.5C 436.679,291.891 437.012,280.224 435.5,268.5 Z"/></g>
<g><path style="opacity:1" fill="#5a2a8e" d="M 255.5,279.5 C 259.769,281.77 263.769,284.437 267.5,287.5C 267.5,288.5 267.5,289.5 267.5,290.5C 266.761,290.369 266.094,290.536 265.5,291C 260.662,295.31 257.329,300.477 255.5,306.5C 255.5,306.833 255.5,307.167 255.5,307.5C 253.273,308.401 252.273,310.067 252.5,312.5C 240.5,312.5 228.5,312.5 216.5,312.5C 216.5,311.5 216.5,310.5 216.5,309.5C 219.174,305.828 221.84,302.161 224.5,298.5C 225.117,298.389 225.617,298.056 226,297.5C 226.979,291.012 226.479,284.678 224.5,278.5C 224.833,277.833 225.167,277.167 225.5,276.5C 229.442,275.4 233.442,275.233 237.5,276C 243.638,276.662 249.638,277.829 255.5,279.5 Z"/></g>
<g><path style="opacity:1" fill="#c46863" d="M 360.5,279.5 C 360.893,282.416 361.893,285.083 363.5,287.5C 364.415,286.672 365.081,285.672 365.5,284.5C 370.792,283.505 376.125,283.172 381.5,283.5C 377.608,295.742 373.108,307.742 368,319.5C 363.599,320.467 359.099,320.8 354.5,320.5C 353.366,317.63 352.7,314.63 352.5,311.5C 354.308,312.918 354.975,314.918 354.5,317.5C 355.5,317.5 356.5,317.5 357.5,317.5C 360.247,317.813 362.914,317.48 365.5,316.5C 366.246,315.264 366.579,313.93 366.5,312.5C 370.244,305.25 373.244,297.583 375.5,289.5C 376.404,288.791 376.737,287.791 376.5,286.5C 373.5,286.5 370.5,286.5 367.5,286.5C 367.5,287.5 367.5,288.5 367.5,289.5C 366.303,293.625 364.803,297.625 363,301.5C 361.121,293.963 358.954,286.629 356.5,279.5C 352.03,278.514 347.363,278.181 342.5,278.5C 342.664,281.187 342.497,283.854 342,286.5C 340.989,287.337 339.822,287.67 338.5,287.5C 332.833,287.5 327.167,287.5 321.5,287.5C 327.679,286.833 334.012,286.167 340.5,285.5C 341.407,282.579 341.74,279.579 341.5,276.5C 347.167,276.5 352.833,276.5 358.5,276.5C 358.285,278.179 358.952,279.179 360.5,279.5 Z"/></g>
<g><path style="opacity:1" fill="#c6656a" d="M 360.5,275.5 C 360.5,276.833 360.5,278.167 360.5,279.5C 358.952,279.179 358.285,278.179 358.5,276.5C 352.833,276.5 347.167,276.5 341.5,276.5C 341.74,279.579 341.407,282.579 340.5,285.5C 334.012,286.167 327.679,286.833 321.5,287.5C 321.5,297.167 321.5,306.833 321.5,316.5C 323.223,317.8 325.39,318.467 328,318.5C 330.167,318.333 332.333,318.167 334.5,318C 340.099,317.362 345.433,315.862 350.5,313.5C 346.287,317.569 341.287,319.902 335.5,320.5C 329.833,320.5 324.167,320.5 318.5,320.5C 318.5,308.5 318.5,296.5 318.5,284.5C 325.5,284.5 332.5,284.5 339.5,284.5C 339.795,282.265 339.461,280.265 338.5,278.5C 338.196,277.85 337.863,277.183 337.5,276.5C 345.138,275.503 352.804,275.169 360.5,275.5 Z"/></g>
<g><path style="opacity:1" fill="#612f79" d="M 242.5,274.5 C 244.042,275.301 245.708,275.634 247.5,275.5C 250.079,277.025 252.746,278.359 255.5,279.5C 249.638,277.829 243.638,276.662 237.5,276C 233.442,275.233 229.442,275.4 225.5,276.5C 225.167,277.167 224.833,277.833 224.5,278.5C 226.479,284.678 226.979,291.012 226,297.5C 225.617,298.056 225.117,298.389 224.5,298.5C 224.5,297.833 224.5,297.167 224.5,296.5C 225.647,292.354 225.814,288.02 225,283.5C 224.722,282.584 224.222,281.918 223.5,281.5C 222.962,279.883 222.629,278.216 222.5,276.5C 228.75,274.541 235.416,273.874 242.5,274.5 Z"/></g>
<g><path style="opacity:1" fill="#f7bc9f" d="M 375.5,289.5 C 374.848,288.275 373.681,287.608 372,287.5C 370.213,287.759 368.713,288.425 367.5,289.5C 367.5,288.5 367.5,287.5 367.5,286.5C 370.5,286.5 373.5,286.5 376.5,286.5C 376.737,287.791 376.404,288.791 375.5,289.5 Z"/></g>
<g><path style="opacity:1" fill="#6a3b80" d="M 218.5,278.5 C 218.833,278.5 219.167,278.5 219.5,278.5C 220.878,282.001 221.545,285.668 221.5,289.5C 221.495,291.696 221.162,293.696 220.5,295.5C 220.687,289.691 220.02,284.025 218.5,278.5 Z"/></g>
<g><path style="opacity:1" fill="#b189af" d="M 223.5,281.5 C 224.222,281.918 224.722,282.584 225,283.5C 225.814,288.02 225.647,292.354 224.5,296.5C 224.587,291.463 224.254,286.463 223.5,281.5 Z"/></g>
<g><path style="opacity:1" fill="#de7041" d="M 267.5,287.5 C 270.427,291.767 273.76,295.767 277.5,299.5C 273.942,297.948 270.942,295.615 268.5,292.5C 266.481,294.19 264.481,295.856 262.5,297.5C 263.754,294.907 265.42,292.573 267.5,290.5C 267.5,289.5 267.5,288.5 267.5,287.5 Z"/></g>
<g><path style="opacity:1" fill="#683482" d="M 209.5,284.5 C 209.833,284.5 210.167,284.5 210.5,284.5C 210.428,287.193 210.095,289.86 209.5,292.5C 210.47,295.437 211.137,298.437 211.5,301.5C 210.857,299.924 209.857,298.59 208.5,297.5C 208.167,296.167 207.833,294.833 207.5,293.5C 207.7,290.37 208.366,287.37 209.5,284.5 Z"/></g>
<g><path style="opacity:1" fill="#9d4359" d="M 267.5,290.5 C 265.42,292.573 263.754,294.907 262.5,297.5C 261.167,298.167 260.167,299.167 259.5,300.5C 258.167,302.5 256.833,304.5 255.5,306.5C 257.329,300.477 260.662,295.31 265.5,291C 266.094,290.536 266.761,290.369 267.5,290.5 Z"/></g>
<g><path style="opacity:1" fill="#592b8e" d="M 218.5,278.5 C 220.02,284.025 220.687,289.691 220.5,295.5C 220.5,296.167 220.5,296.833 220.5,297.5C 217.203,297.632 215.537,299.298 215.5,302.5C 214.041,302.567 212.708,302.234 211.5,301.5C 211.137,298.437 210.47,295.437 209.5,292.5C 210.095,289.86 210.428,287.193 210.5,284.5C 211.208,279.37 213.875,277.37 218.5,278.5 Z"/></g>
<g><path style="opacity:1" fill="#fdeaab" d="M 343.5,313.5 C 342.486,314.674 341.153,315.34 339.5,315.5C 333.833,315.5 328.167,315.5 322.5,315.5C 322.5,306.5 322.5,297.5 322.5,288.5C 332.112,286.989 340.279,289.656 347,296.5C 348.176,302.81 347.01,308.477 343.5,313.5 Z"/></g>
<g><path style="opacity:1" fill="#c33547" d="M 207.5,293.5 C 207.833,294.833 208.167,296.167 208.5,297.5C 208.5,298.167 208.5,298.833 208.5,299.5C 206.958,298.699 205.292,298.366 203.5,298.5C 204.864,296.809 206.197,295.142 207.5,293.5 Z"/></g>
<g><path style="opacity:1" fill="#a22457" d="M 208.5,297.5 C 209.857,298.59 210.857,299.924 211.5,301.5C 211.5,303.833 211.5,306.167 211.5,308.5C 211.5,308.833 211.5,309.167 211.5,309.5C 210.833,307.5 210.167,305.5 209.5,303.5C 209.768,301.901 209.434,300.568 208.5,299.5C 208.5,298.833 208.5,298.167 208.5,297.5 Z"/></g>
<g><path style="opacity:1" fill="#ee651a" d="M 277.5,299.5 C 278.11,300.391 278.443,301.391 278.5,302.5C 278.433,303.959 278.766,305.292 279.5,306.5C 274.933,305.005 270.266,303.671 265.5,302.5C 265.5,305.5 265.5,308.5 265.5,311.5C 262.5,311.5 259.5,311.5 256.5,311.5C 257.612,307.882 258.612,304.216 259.5,300.5C 260.167,299.167 261.167,298.167 262.5,297.5C 264.481,295.856 266.481,294.19 268.5,292.5C 270.942,295.615 273.942,297.948 277.5,299.5 Z"/></g>
<g><path style="opacity:1" fill="#d71e2a" d="M 203.5,298.5 C 205.292,298.366 206.958,298.699 208.5,299.5C 209.434,300.568 209.768,301.901 209.5,303.5C 209.5,306.167 209.5,308.833 209.5,311.5C 203.833,311.5 198.167,311.5 192.5,311.5C 191.589,306.633 192.922,302.633 196.5,299.5C 198.764,298.781 201.097,298.448 203.5,298.5 Z"/></g>
<g><path style="opacity:1" fill="#e2883c" d="M 298.5,297.5 C 301.067,297.721 303.401,298.388 305.5,299.5C 303.266,299.62 301.099,299.287 299,298.5C 296.943,300.544 294.443,301.71 291.5,302C 287.179,302.499 282.846,302.666 278.5,302.5C 278.443,301.391 278.11,300.391 277.5,299.5C 284.759,302.361 291.759,301.695 298.5,297.5 Z"/></g>
<g><path style="opacity:1" fill="#fad3a6" d="M 321.5,287.5 C 327.167,287.5 332.833,287.5 338.5,287.5C 343.285,288.167 346.452,290.834 348,295.5C 348.667,300.833 348.667,306.167 348,311.5C 346.89,313.037 345.39,313.703 343.5,313.5C 347.01,308.477 348.176,302.81 347,296.5C 340.279,289.656 332.112,286.989 322.5,288.5C 322.5,297.5 322.5,306.5 322.5,315.5C 328.167,315.5 333.833,315.5 339.5,315.5C 333.69,316.49 327.69,316.823 321.5,316.5C 321.5,306.833 321.5,297.167 321.5,287.5 Z"/></g>
<g><path style="opacity:1" fill="#c67161" d="M 356.5,279.5 C 352.167,279.5 347.833,279.5 343.5,279.5C 343.5,281.833 343.5,284.167 343.5,286.5C 345.5,286.5 347.5,286.5 349.5,286.5C 350.431,294.562 352.431,302.229 355.5,309.5C 355.858,312.267 356.525,314.933 357.5,317.5C 356.5,317.5 355.5,317.5 354.5,317.5C 354.975,314.918 354.308,312.918 352.5,311.5C 351.5,311.833 350.833,312.5 350.5,313.5C 345.433,315.862 340.099,317.362 334.5,318C 332.333,318.167 330.167,318.333 328,318.5C 325.39,318.467 323.223,317.8 321.5,316.5C 327.69,316.823 333.69,316.49 339.5,315.5C 341.153,315.34 342.486,314.674 343.5,313.5C 345.39,313.703 346.89,313.037 348,311.5C 348.667,306.167 348.667,300.833 348,295.5C 346.452,290.834 343.285,288.167 338.5,287.5C 339.822,287.67 340.989,287.337 342,286.5C 342.497,283.854 342.664,281.187 342.5,278.5C 347.363,278.181 352.03,278.514 356.5,279.5 Z"/></g>
<g><path style="opacity:1" fill="#622f7d" d="M 220.5,297.5 C 217.833,301.167 215.167,304.833 212.5,308.5C 212.167,308.5 211.833,308.5 211.5,308.5C 211.5,306.167 211.5,303.833 211.5,301.5C 212.708,302.234 214.041,302.567 215.5,302.5C 215.537,299.298 217.203,297.632 220.5,297.5 Z"/></g>
<g><path style="opacity:1" fill="#ecc5d4" d="M 218.5,275.5 C 219.5,275.5 220.5,275.5 221.5,275.5C 221.5,276.167 221.833,276.5 222.5,276.5C 222.629,278.216 222.962,279.883 223.5,281.5C 224.254,286.463 224.587,291.463 224.5,296.5C 224.5,297.167 224.5,297.833 224.5,298.5C 221.84,302.161 219.174,305.828 216.5,309.5C 215.566,310.568 215.232,311.901 215.5,313.5C 214.5,313.5 213.5,313.5 212.5,313.5C 212.5,311.833 212.5,310.167 212.5,308.5C 215.167,304.833 217.833,301.167 220.5,297.5C 220.5,296.833 220.5,296.167 220.5,295.5C 221.162,293.696 221.495,291.696 221.5,289.5C 221.545,285.668 220.878,282.001 219.5,278.5C 219.443,277.391 219.11,276.391 218.5,275.5 Z"/></g>
<g><path style="opacity:1" fill="#f08619" d="M 305.5,299.5 C 305.608,301.514 304.942,303.18 303.5,304.5C 300.312,304.618 297.312,305.451 294.5,307C 290.179,307.499 285.846,307.666 281.5,307.5C 281.158,306.662 280.492,306.328 279.5,306.5C 278.766,305.292 278.433,303.959 278.5,302.5C 282.846,302.666 287.179,302.499 291.5,302C 294.443,301.71 296.943,300.544 299,298.5C 301.099,299.287 303.266,299.62 305.5,299.5 Z"/></g>
<g><path style="opacity:1" fill="#f1ad94" d="M 305.5,299.5 C 306.167,299.5 306.833,299.5 307.5,299.5C 307.155,302.198 305.822,304.198 303.5,305.5C 303.5,305.167 303.5,304.833 303.5,304.5C 304.942,303.18 305.608,301.514 305.5,299.5 Z"/></g>
<g><path style="opacity:1" fill="#fdbfdd" d="M 323.5,255.5 C 323.823,259.365 322.49,262.531 319.5,265C 320.615,266.235 320.615,267.402 319.5,268.5C 329.014,268.026 329.681,270.192 321.5,275C 324.167,275.667 324.167,276.333 321.5,277C 322.938,277.219 324.271,277.719 325.5,278.5C 324.044,278.322 322.711,279.156 321.5,281C 322.108,281.87 322.941,282.37 324,282.5C 324.667,281.833 325.333,281.167 326,280.5C 330.01,282.227 334.177,283.227 338.5,283.5C 338.5,281.833 338.5,280.167 338.5,278.5C 339.461,280.265 339.795,282.265 339.5,284.5C 332.5,284.5 325.5,284.5 318.5,284.5C 318.5,296.5 318.5,308.5 318.5,320.5C 324.167,320.5 329.833,320.5 335.5,320.5C 331.946,325.185 327.613,326.185 322.5,323.5C 321.859,325.296 320.859,326.796 319.5,328C 321.5,328.833 323.5,329.667 325.5,330.5C 323.5,331.167 321.5,331.833 319.5,332.5C 320.909,339.791 322.242,347.125 323.5,354.5C 321.883,356.983 319.55,358.483 316.5,359C 317.252,359.671 317.586,360.504 317.5,361.5C 315.396,363.999 313.396,363.999 311.5,361.5C 311.808,360.692 312.308,360.025 313,359.5C 313.167,353.667 313.333,347.833 313.5,342C 313.476,335.757 312.81,329.757 311.5,324C 312.167,323.667 312.833,323.333 313.5,323C 312.359,322.259 312.359,321.425 313.5,320.5C 312.884,315.849 312.218,311.182 311.5,306.5C 310.914,306.709 310.414,307.043 310,307.5C 308.638,304.705 308.138,302.038 308.5,299.5C 312.373,292.569 313.373,285.236 311.5,277.5C 311.103,273.435 309.103,270.435 305.5,268.5C 305.167,267.833 304.833,267.167 304.5,266.5C 306.679,266.84 308.512,267.84 310,269.5C 310.934,268.142 311.768,266.808 312.5,265.5C 312.222,267.346 312.889,268.68 314.5,269.5C 317.145,264.491 320.145,259.824 323.5,255.5 Z"/></g>
<g><path style="opacity:1" fill="#fde8ab" d="M 356.5,279.5 C 358.954,286.629 361.121,293.963 363,301.5C 364.803,297.625 366.303,293.625 367.5,289.5C 368.713,288.425 370.213,287.759 372,287.5C 373.681,287.608 374.848,288.275 375.5,289.5C 373.244,297.583 370.244,305.25 366.5,312.5C 364.952,312.821 364.285,313.821 364.5,315.5C 362.167,315.5 359.833,315.5 357.5,315.5C 357.741,313.102 357.074,311.102 355.5,309.5C 352.431,302.229 350.431,294.562 349.5,286.5C 347.5,286.5 345.5,286.5 343.5,286.5C 343.5,284.167 343.5,281.833 343.5,279.5C 347.833,279.5 352.167,279.5 356.5,279.5 Z"/></g>
<g><path style="opacity:1" fill="#fec5dd" d="M 307.5,299.5 C 307.833,299.5 308.167,299.5 308.5,299.5C 308.138,302.038 308.638,304.705 310,307.5C 310.414,307.043 310.914,306.709 311.5,306.5C 312.218,311.182 312.884,315.849 313.5,320.5C 312.359,321.425 312.359,322.259 313.5,323C 312.833,323.333 312.167,323.667 311.5,324C 312.81,329.757 313.476,335.757 313.5,342C 313.333,347.833 313.167,353.667 313,359.5C 312.308,360.025 311.808,360.692 311.5,361.5C 313.396,363.999 315.396,363.999 317.5,361.5C 317.917,362.124 318.584,362.457 319.5,362.5C 326.412,359.499 332.746,355.832 338.5,351.5C 332.168,358.49 324.501,363.49 315.5,366.5C 311.524,366.993 307.69,367.993 304,369.5C 302.475,368.28 300.641,367.613 298.5,367.5C 296.833,367.667 295.167,367.833 293.5,368C 294.96,368.811 295.293,369.645 294.5,370.5C 292.627,371.089 290.96,370.422 289.5,368.5C 288.914,368.709 288.414,369.043 288,369.5C 285.595,368.726 283.095,368.226 280.5,368C 282.764,367.764 284.931,367.264 287,366.5C 287.5,351.17 287.667,335.837 287.5,320.5C 286.167,320.5 284.833,320.5 283.5,320.5C 284.833,318.167 286.167,315.833 287.5,313.5C 284.5,313.5 281.5,313.5 278.5,313.5C 278.143,317.395 276.143,318.395 272.5,316.5C 275.393,315.774 277.059,313.941 277.5,311C 284.55,310.203 291.55,310.37 298.5,311.5C 301.337,310.491 302.67,308.491 302.5,305.5C 302.833,305.5 303.167,305.5 303.5,305.5C 305.822,304.198 307.155,302.198 307.5,299.5 Z"/></g>
<g><path style="opacity:1" fill="#c47260" d="M 337.5,309.5 C 336.167,309.5 334.833,309.5 333.5,309.5C 333.81,306.287 333.477,303.287 332.5,300.5C 332.5,298.5 332.5,296.5 332.5,294.5C 335.38,294.033 337.713,294.866 339.5,297C 340.562,300.789 340.729,304.623 340,308.5C 339.329,309.252 338.496,309.586 337.5,309.5 Z"/></g>
<g><path style="opacity:1" fill="#e46a2b" d="M 259.5,300.5 C 258.612,304.216 257.612,307.882 256.5,311.5C 259.5,311.5 262.5,311.5 265.5,311.5C 265.5,308.5 265.5,305.5 265.5,302.5C 270.266,303.671 274.933,305.005 279.5,306.5C 280.492,306.328 281.158,306.662 281.5,307.5C 280.833,307.5 280.167,307.5 279.5,307.5C 275.5,307.167 271.5,306.833 267.5,306.5C 267.5,307.5 267.5,308.5 267.5,309.5C 267.5,310.5 267.5,311.5 267.5,312.5C 263.5,312.5 259.5,312.5 255.5,312.5C 255.5,311.5 255.5,310.5 255.5,309.5C 255.5,308.833 255.5,308.167 255.5,307.5C 255.5,307.167 255.5,306.833 255.5,306.5C 256.833,304.5 258.167,302.5 259.5,300.5 Z"/></g>
<g><path style="opacity:1" fill="#da9f7c" d="M 332.5,300.5 C 333.477,303.287 333.81,306.287 333.5,309.5C 334.833,309.5 336.167,309.5 337.5,309.5C 336.081,310.451 334.415,310.784 332.5,310.5C 332.5,307.167 332.5,303.833 332.5,300.5 Z"/></g>
<g><path style="opacity:1" fill="#fec0b6" d="M 279.5,307.5 C 280.167,308.167 280.833,308.833 281.5,309.5C 277.534,308.838 273.534,308.505 269.5,308.5C 269.784,310.415 269.451,312.081 268.5,313.5C 268.768,311.901 268.434,310.568 267.5,309.5C 267.5,308.5 267.5,307.5 267.5,306.5C 271.5,306.833 275.5,307.167 279.5,307.5 Z"/></g>
<g><path style="opacity:1" fill="#e38e3b" d="M 303.5,304.5 C 303.5,304.833 303.5,305.167 303.5,305.5C 303.167,305.5 302.833,305.5 302.5,305.5C 295.951,308.967 288.951,310.3 281.5,309.5C 280.833,308.833 280.167,308.167 279.5,307.5C 280.167,307.5 280.833,307.5 281.5,307.5C 285.846,307.666 290.179,307.499 294.5,307C 297.312,305.451 300.312,304.618 303.5,304.5 Z"/></g>
<g><path style="opacity:1" fill="#ce6567" d="M 334.5,296.5 C 335.5,296.5 336.5,296.5 337.5,296.5C 338.021,300.481 338.354,304.481 338.5,308.5C 337.167,308.5 335.833,308.5 334.5,308.5C 334.5,304.5 334.5,300.5 334.5,296.5 Z"/></g>
<g><path style="opacity:1" fill="#fecbd7" d="M 302.5,305.5 C 302.67,308.491 301.337,310.491 298.5,311.5C 291.55,310.37 284.55,310.203 277.5,311C 277.059,313.941 275.393,315.774 272.5,316.5C 276.143,318.395 278.143,317.395 278.5,313.5C 281.5,313.5 284.5,313.5 287.5,313.5C 286.167,315.833 284.833,318.167 283.5,320.5C 284.833,320.5 286.167,320.5 287.5,320.5C 287.667,335.837 287.5,351.17 287,366.5C 284.931,367.264 282.764,367.764 280.5,368C 283.095,368.226 285.595,368.726 288,369.5C 288.414,369.043 288.914,368.709 289.5,368.5C 290.96,370.422 292.627,371.089 294.5,370.5C 295.293,369.645 294.96,368.811 293.5,368C 295.167,367.833 296.833,367.667 298.5,367.5C 300.641,367.613 302.475,368.28 304,369.5C 307.69,367.993 311.524,366.993 315.5,366.5C 308.649,369.885 301.315,372.051 293.5,373C 285.167,373.667 276.833,373.667 268.5,373C 263.843,372.588 259.509,371.421 255.5,369.5C 255.461,368.244 255.961,367.244 257,366.5C 257.789,350.135 257.622,333.802 256.5,317.5C 254.833,317.5 253.167,317.5 251.5,317.5C 251.5,316.5 251.5,315.5 251.5,314.5C 242.167,314.5 232.833,314.5 223.5,314.5C 220.833,314.5 218.167,314.5 215.5,314.5C 215.5,314.167 215.5,313.833 215.5,313.5C 228.167,313.5 240.833,313.5 253.5,313.5C 258.5,313.5 263.5,313.5 268.5,313.5C 269.451,312.081 269.784,310.415 269.5,308.5C 273.534,308.505 277.534,308.838 281.5,309.5C 288.951,310.3 295.951,308.967 302.5,305.5 Z"/></g>
<g><path style="opacity:1" fill="#c72d34" d="M 196.5,299.5 C 192.922,302.633 191.589,306.633 192.5,311.5C 198.167,311.5 203.833,311.5 209.5,311.5C 209.5,308.833 209.5,306.167 209.5,303.5C 210.167,305.5 210.833,307.5 211.5,309.5C 211.5,310.5 211.5,311.5 211.5,312.5C 204.833,312.5 198.167,312.5 191.5,312.5C 188.923,306.344 190.59,302.011 196.5,299.5 Z"/></g>
<g><path style="opacity:1" fill="#cf575a" d="M 211.5,308.5 C 211.833,308.5 212.167,308.5 212.5,308.5C 212.5,310.167 212.5,311.833 212.5,313.5C 205.313,313.825 198.313,313.491 191.5,312.5C 198.167,312.5 204.833,312.5 211.5,312.5C 211.5,311.5 211.5,310.5 211.5,309.5C 211.5,309.167 211.5,308.833 211.5,308.5 Z"/></g>
<g><path style="opacity:1" fill="#885a92" d="M 255.5,307.5 C 255.5,308.167 255.5,308.833 255.5,309.5C 254.655,310.671 253.989,312.005 253.5,313.5C 240.833,313.5 228.167,313.5 215.5,313.5C 215.232,311.901 215.566,310.568 216.5,309.5C 216.5,310.5 216.5,311.5 216.5,312.5C 228.5,312.5 240.5,312.5 252.5,312.5C 252.273,310.067 253.273,308.401 255.5,307.5 Z"/></g>
<g><path style="opacity:1" fill="#e48662" d="M 255.5,309.5 C 255.5,310.5 255.5,311.5 255.5,312.5C 259.5,312.5 263.5,312.5 267.5,312.5C 267.5,311.5 267.5,310.5 267.5,309.5C 268.434,310.568 268.768,311.901 268.5,313.5C 263.5,313.5 258.5,313.5 253.5,313.5C 253.989,312.005 254.655,310.671 255.5,309.5 Z"/></g>
<g><path style="opacity:1" fill="#fed7ca" d="M 215.5,253.5 C 217.04,255.838 217.706,258.505 217.5,261.5C 217.66,263.199 217.494,264.866 217,266.5C 215.817,265.269 214.651,265.269 213.5,266.5C 212.691,268.071 212.357,269.738 212.5,271.5C 212.5,273.167 212.5,274.833 212.5,276.5C 211.129,278.936 210.129,281.603 209.5,284.5C 208.366,287.37 207.7,290.37 207.5,293.5C 206.197,295.142 204.864,296.809 203.5,298.5C 201.097,298.448 198.764,298.781 196.5,299.5C 190.59,302.011 188.923,306.344 191.5,312.5C 198.313,313.491 205.313,313.825 212.5,313.5C 213.5,313.5 214.5,313.5 215.5,313.5C 215.5,313.833 215.5,314.167 215.5,314.5C 216.905,326.767 217.905,339.1 218.5,351.5C 219.666,341.183 219.832,330.849 219,320.5C 217.385,318.989 217.385,317.656 219,316.5C 221.333,317.167 223.667,317.833 226,318.5C 226.667,329.167 226.667,339.833 226,350.5C 224.491,351.09 222.991,351.756 221.5,352.5C 223.691,352.5 225.357,353.834 226.5,356.5C 225.174,356.205 223.841,356.705 222.5,358C 223.905,359.269 225.571,359.769 227.5,359.5C 216.473,365.926 204.473,369.26 191.5,369.5C 191.5,369.167 191.5,368.833 191.5,368.5C 195.081,367.74 198.748,367.24 202.5,367C 201.207,366.51 199.873,366.343 198.5,366.5C 198.333,350.163 198.5,333.83 199,317.5C 201.133,315.862 203.633,315.029 206.5,315C 203.854,314.503 201.187,314.336 198.5,314.5C 195.753,314.813 193.086,314.48 190.5,313.5C 188.488,311.659 186.155,310.659 183.5,310.5C 183.201,308.396 183.534,306.396 184.5,304.5C 185.167,305.167 185.833,305.833 186.5,306.5C 187.647,304.235 187.814,301.902 187,299.5C 182.553,300.543 182.553,299.876 187,297.5C 187.147,292.956 187.98,288.623 189.5,284.5C 189.406,282.311 188.739,280.311 187.5,278.5C 187.97,277.537 188.637,277.537 189.5,278.5C 190.833,279.5 192.167,280.5 193.5,281.5C 193.5,281.833 193.5,282.167 193.5,282.5C 194.789,285.789 197.122,288.122 200.5,289.5C 200.56,290.043 200.893,290.376 201.5,290.5C 203.809,288.308 203.809,286.308 201.5,284.5C 201.775,282.242 202.775,281.908 204.5,283.5C 207.661,280.872 208.161,277.872 206,274.5C 205.505,276.473 205.338,278.473 205.5,280.5C 203.208,280.756 201.041,280.423 199,279.5C 198.831,271.812 198.331,264.145 197.5,256.5C 196.328,256.081 195.328,255.415 194.5,254.5C 198.122,253.675 201.789,253.175 205.5,253C 203.285,251.956 200.952,251.29 198.5,251C 202.783,247.928 207.449,247.095 212.5,248.5C 213.325,250.36 214.325,252.026 215.5,253.5 Z"/></g>
<g><path style="opacity:1" fill="#a73947" d="M 199.5,284.5 C 199.833,284.5 200.167,284.5 200.5,284.5C 200.833,284.5 201.167,284.5 201.5,284.5C 203.809,286.308 203.809,288.308 201.5,290.5C 200.893,290.376 200.56,290.043 200.5,289.5C 199.833,288.5 199.167,287.5 198.5,286.5C 199.338,286.158 199.672,285.492 199.5,284.5 Z"/></g>
<g><path style="opacity:1" fill="#c74629" d="M 193.5,282.5 C 193.5,282.167 193.5,281.833 193.5,281.5C 195.784,281.975 197.784,282.975 199.5,284.5C 199.672,285.492 199.338,286.158 198.5,286.5C 196.833,285.167 195.167,283.833 193.5,282.5 Z"/></g>
<g><path style="opacity:1" fill="#fcb1a6" d="M 193.5,282.5 C 195.167,283.833 196.833,285.167 198.5,286.5C 199.167,287.5 199.833,288.5 200.5,289.5C 197.122,288.122 194.789,285.789 193.5,282.5 Z"/></g>
<g><path style="opacity:1" fill="#fed1d2" d="M 223.5,314.5 C 232.833,314.5 242.167,314.5 251.5,314.5C 251.5,315.5 251.5,316.5 251.5,317.5C 253.167,317.5 254.833,317.5 256.5,317.5C 257.622,333.802 257.789,350.135 257,366.5C 255.961,367.244 255.461,368.244 255.5,369.5C 249.422,368.702 244.088,366.369 239.5,362.5C 239.649,361.448 239.483,360.448 239,359.5C 237.262,356.768 234.762,355.268 231.5,355C 236.823,353.517 236.823,352.35 231.5,351.5C 231.334,341.161 231.5,330.828 232,320.5C 232.374,319.584 232.874,318.75 233.5,318C 230.197,316.517 226.864,315.35 223.5,314.5 Z"/></g>
<g><path style="opacity:1" fill="#f5bcef" d="M 434.5,303.5 C 432.165,309.514 428.831,314.848 424.5,319.5C 424.433,318.041 424.766,316.708 425.5,315.5C 427.081,313.858 427.747,311.858 427.5,309.5C 428.5,309.5 429.5,309.5 430.5,309.5C 430.833,307.5 431.167,305.5 431.5,303.5C 432.5,303.5 433.5,303.5 434.5,303.5 Z"/></g>
<g><path style="opacity:1" fill="#fedbc8" d="M 198.5,314.5 C 201.187,314.336 203.854,314.503 206.5,315C 203.633,315.029 201.133,315.862 199,317.5C 198.5,333.83 198.333,350.163 198.5,366.5C 199.873,366.343 201.207,366.51 202.5,367C 198.748,367.24 195.081,367.74 191.5,368.5C 191.167,368.5 190.833,368.5 190.5,368.5C 190.189,367.522 189.522,366.855 188.5,366.5C 187.167,350.833 187.167,335.167 188.5,319.5C 191.395,316.719 194.728,315.052 198.5,314.5 Z"/></g>
<g><path style="opacity:1" fill="#fcdaac" d="M 355.5,309.5 C 357.074,311.102 357.741,313.102 357.5,315.5C 359.833,315.5 362.167,315.5 364.5,315.5C 364.285,313.821 364.952,312.821 366.5,312.5C 366.579,313.93 366.246,315.264 365.5,316.5C 362.914,317.48 360.247,317.813 357.5,317.5C 356.525,314.933 355.858,312.267 355.5,309.5 Z"/></g>
<g><path style="opacity:1" fill="#fed4ce" d="M 215.5,314.5 C 218.167,314.5 220.833,314.5 223.5,314.5C 226.864,315.35 230.197,316.517 233.5,318C 232.874,318.75 232.374,319.584 232,320.5C 231.5,330.828 231.334,341.161 231.5,351.5C 236.823,352.35 236.823,353.517 231.5,355C 234.762,355.268 237.262,356.768 239,359.5C 239.483,360.448 239.649,361.448 239.5,362.5C 236.571,361.412 233.737,360.079 231,358.5C 229.862,358.989 228.695,359.322 227.5,359.5C 225.571,359.769 223.905,359.269 222.5,358C 223.841,356.705 225.174,356.205 226.5,356.5C 225.357,353.834 223.691,352.5 221.5,352.5C 222.991,351.756 224.491,351.09 226,350.5C 226.667,339.833 226.667,329.167 226,318.5C 223.667,317.833 221.333,317.167 219,316.5C 217.385,317.656 217.385,318.989 219,320.5C 219.832,330.849 219.666,341.183 218.5,351.5C 217.905,339.1 216.905,326.767 215.5,314.5 Z"/></g>
<g><path style="opacity:1" fill="#fdbfe4" d="M 352.5,311.5 C 352.7,314.63 353.366,317.63 354.5,320.5C 352.824,319.817 352.157,318.483 352.5,316.5C 351.07,316.421 349.736,316.754 348.5,317.5C 347.833,323.5 347.167,329.5 346.5,335.5C 343.856,336.741 343.023,338.741 344,341.5C 346.105,340.689 348.105,339.689 350,338.5C 354.358,339.742 358.858,340.408 363.5,340.5C 372.692,339.871 381.692,338.871 390.5,337.5C 394.198,335.654 398.198,334.654 402.5,334.5C 396.007,337.94 389.007,340.106 381.5,341C 370.517,342.625 359.517,342.958 348.5,342C 345.224,345.448 341.891,348.615 338.5,351.5C 332.746,355.832 326.412,359.499 319.5,362.5C 318.584,362.457 317.917,362.124 317.5,361.5C 317.586,360.504 317.252,359.671 316.5,359C 319.55,358.483 321.883,356.983 323.5,354.5C 322.242,347.125 320.909,339.791 319.5,332.5C 321.5,331.833 323.5,331.167 325.5,330.5C 323.5,329.667 321.5,328.833 319.5,328C 320.859,326.796 321.859,325.296 322.5,323.5C 327.613,326.185 331.946,325.185 335.5,320.5C 341.287,319.902 346.287,317.569 350.5,313.5C 350.833,312.5 351.5,311.833 352.5,311.5 Z"/></g>
</svg>
